<?xml version="1.0" encoding="utf-8"?>
<!-- Generator: Adobe Illustrator 16.0.0, SVG Export Plug-In . SVG Version: 6.00 Build 0)  -->
<!DOCTYPE svg PUBLIC "-//W3C//DTD SVG 1.1//EN" "http://www.w3.org/Graphics/SVG/1.1/DTD/svg11.dtd">
<svg version="1.1" id="Layer_1" xmlns="http://www.w3.org/2000/svg" xmlns:xlink="http://www.w3.org/1999/xlink" x="0px" y="0px"
	 width="40px" height="40px" viewBox="0 0 40 40" enable-background="new 0 0 40 40" xml:space="preserve">
<g>
	<path fill="#74A140" d="M27.469,28.461c-1.752,0-3.178,1.427-3.178,3.179c0,1.753,1.426,3.178,3.178,3.178
		c1.75-0.002,3.176-1.427,3.179-3.178C30.647,29.888,29.222,28.461,27.469,28.461"/>
	<path fill="#74A140" d="M35.615,10.847l-0.011-0.013c-0.219-0.256-0.54-0.389-0.873-0.398H10.775l-0.412-2.814
		C10.15,6.148,8.869,5.039,7.382,5.039H7.381H4.329c-0.628,0-1.14,0.512-1.14,1.14s0.512,1.14,1.14,1.14h3.052
		c0.36-0.015,0.684,0.27,0.734,0.64l2.308,15.818c0.298,1.827,1.86,3.16,3.714,3.169h15.584c1.771-0.005,3.315-1.267,3.674-3.002
		l2.436-12.146C35.906,11.464,35.827,11.117,35.615,10.847 M29.72,24.667H14.137c-0.731,0-1.362-0.545-1.467-1.27l-1.564-10.684
		h22.231L31.173,23.48C31.032,24.168,30.421,24.667,29.72,24.667"/>
	<path fill="#74A140" d="M15.46,28.479L15.46,28.479c-0.846,0.01-1.638,0.35-2.229,0.955c-0.591,0.605-0.911,1.405-0.901,2.252
		c0.021,1.733,1.396,3.108,3.134,3.129h0.072c0.846-0.01,1.638-0.349,2.229-0.955c0.591-0.604,0.911-1.404,0.901-2.251
		C18.646,29.862,17.207,28.45,15.46,28.479"/>
</g>
</svg>
