<?xml version="1.0" encoding="utf-8"?>
<!-- Generator: Adobe Illustrator 16.0.0, SVG Export Plug-In . SVG Version: 6.00 Build 0)  -->
<!DOCTYPE svg PUBLIC "-//W3C//DTD SVG 1.1//EN" "http://www.w3.org/Graphics/SVG/1.1/DTD/svg11.dtd">
<svg version="1.1" id="Layer_1" xmlns="http://www.w3.org/2000/svg" xmlns:xlink="http://www.w3.org/1999/xlink" x="0px" y="0px"
	 width="66.728px" height="89.333px" viewBox="0 0 66.728 89.333" enable-background="new 0 0 66.728 89.333" xml:space="preserve">
<path fill="#F37F7E" d="M-63.955-70.042h-18.067c-3.701,0-6.712,3.012-6.712,6.715v18.089c0,1.767,0.716,3.496,1.965,4.747
	c1.251,1.249,2.981,1.965,4.747,1.965h18.067c1.766,0,3.496-0.716,4.746-1.965c1.25-1.251,1.966-2.981,1.966-4.747v-18.089
	c0-1.768-0.716-3.499-1.965-4.747C-60.476-69.343-62.162-70.042-63.955-70.042 M-67.63-41.847h-3.714v-6.096h3.714V-41.847z
	 M-74.643-41.847h-3.713v-6.096h3.713V-41.847z M-81.653-47.943v6.096h-0.3c-1.883,0-3.415-1.532-3.415-3.415v-2.681H-81.653z
	 M-85.368-60.631v-2.696c0-1.884,1.532-3.417,3.415-3.417h0.3v6.113H-85.368z M-78.355-66.744h3.713v6.113h-3.713V-66.744z
	 M-71.345-66.744h3.714v6.113h-3.714V-66.744z M-64.333-60.631v-6.113h0.298c1.884,0,3.418,1.533,3.418,3.417v2.696H-64.333z
	 M-65.98-51.241h-19.456v-6.093h24.894l-0.074,12.069v0.003c0,1.883-1.534,3.415-3.418,3.415h-0.298v-7.745
	C-64.333-50.501-65.072-51.241-65.98-51.241"/>
<path fill="#F37F7E" d="M-52.506-97.342c-0.865-0.862-2.011-1.336-3.229-1.336h-0.013h-28.15l-10.924,10.923v53.485
	c0,2.532,2.06,4.592,4.592,4.592h34.483c2.532,0,4.592-2.06,4.592-4.592v-59.817C-51.155-95.317-51.635-96.473-52.506-97.342
	 M-54.616-34.258c0,0.624-0.507,1.132-1.131,1.132h-34.483c-0.623,0-1.131-0.508-1.131-1.132v-52.065l8.894-8.894h26.72
	c0.624,0,1.131,0.507,1.131,1.13V-34.258z"/>
<g>
	<path fill="#F37F7E" d="M48.721-55.188c-0.976,0-1.769-0.793-1.769-1.769c0-0.975,0.793-1.768,1.769-1.768h6.8
		c0.975,0,1.768,0.793,1.768,1.768c0,0.976-0.793,1.769-1.768,1.769H48.721z"/>
	<path fill="#F37F7E" d="M14.5-55.188c-0.976,0-1.769-0.793-1.769-1.769c0-0.975,0.793-1.768,1.769-1.768h26.202
		c0.975,0,1.768,0.793,1.768,1.768c0,0.976-0.793,1.769-1.768,1.769H14.5z"/>
	<path fill="#F37F7E" d="M64.531-81.63c-1.419-1.418-3.305-2.199-5.309-2.199H10.798c-4.139,0-7.507,3.367-7.507,7.507v28.689
		c0,2.004,0.782,3.889,2.2,5.307c1.417,1.418,3.301,2.199,5.307,2.199h48.424c2.005,0,3.891-0.781,5.309-2.199
		c1.418-1.417,2.197-3.301,2.197-5.307v-28.689C66.728-78.327,65.949-80.212,64.531-81.63 M10.798-80.292h48.424
		c2.188,0,3.97,1.781,3.97,3.97v0.996L6.829-75.393v-0.929C6.829-78.511,8.611-80.292,10.798-80.292 M59.222-43.663H10.798
		c-2.188,0-3.97-1.781-3.97-3.97v-20.21h56.363v20.21C63.192-45.444,61.411-43.663,59.222-43.663"/>
	<path fill="#FFFFFF" d="M70.481-51.681c0,7.343-5.953,13.296-13.296,13.296c-7.344,0-13.297-5.953-13.297-13.296
		c0-7.344,5.953-13.296,13.297-13.296C64.528-64.977,70.481-59.024,70.481-51.681"/>
	<path fill="#F37F7E" d="M57.185-36.884c-8.159,0-14.797-6.638-14.797-14.796c0-8.159,6.638-14.797,14.797-14.797
		c8.158,0,14.796,6.638,14.796,14.797C71.981-43.522,65.343-36.884,57.185-36.884 M57.185-63.478
		c-6.505,0-11.797,5.292-11.797,11.797c0,6.504,5.292,11.796,11.797,11.796c6.504,0,11.796-5.292,11.796-11.796
		C68.981-58.185,63.689-63.478,57.185-63.478"/>
	<path fill="#F37F7E" d="M64.086-51.68h-0.004c0,0.365-0.145,0.717-0.402,0.976c-0.259,0.258-0.611,0.403-0.977,0.403h-4.14v4.141
		c0,0.763-0.619,1.379-1.379,1.379c-0.764,0-1.382-0.616-1.382-1.379v-4.141h-4.142c-0.76,0-1.379-0.618-1.379-1.379
		c0-0.763,0.619-1.382,1.379-1.382h4.142v-4.14c0-0.761,0.618-1.379,1.382-1.379c0.76,0,1.379,0.618,1.379,1.379v4.14h4.14
		c0.365,0,0.718,0.148,0.977,0.406c0.258,0.259,0.402,0.609,0.402,0.976H64.086z"/>
</g>
<g>
	<path fill="#F37F7E" d="M107.813-42.896c-2.915,0-4.587-1.793-4.587-4.92v-55.306c0-3.208,1.801-5.281,4.587-5.281h32.513
		c2.786,0,4.587,2.073,4.587,5.281v55.306c0,3.127-1.672,4.92-4.587,4.92H107.813z M106.761-53.79c-0.066,0-0.12,0.053-0.12,0.119
		v5.899c0,0.909,0.077,1.506,1.098,1.506h32.663c1.021,0,1.098-0.597,1.098-1.506v-5.899c0-0.066-0.054-0.119-0.12-0.119H106.761z
		 M106.761-97.684c-0.066,0-0.12,0.053-0.12,0.119v40.178c0,0.066,0.054,0.119,0.12,0.119h34.618c0.066,0,0.12-0.053,0.12-0.119
		v-40.178c0-0.066-0.054-0.119-0.12-0.119H106.761z M107.913-104.989c-0.845,0-1.272,0.628-1.272,1.867v1.905
		c0,0.066,0.054,0.119,0.12,0.119h34.618c0.066,0,0.12-0.053,0.12-0.119v-1.905c0-1.239-0.428-1.867-1.272-1.867H107.913z"/>
	<path fill="#F37F7E" d="M125.979-50.026c0,1.054-0.854,1.909-1.909,1.909s-1.909-0.855-1.909-1.909
		c0-1.054,0.854-1.909,1.909-1.909S125.979-51.081,125.979-50.026"/>
	<path fill="#FFFFFF" d="M154.679-54.462c0,7.344-5.953,13.296-13.296,13.296c-7.344,0-13.297-5.952-13.297-13.296
		c0-7.343,5.953-13.296,13.297-13.296C148.726-67.758,154.679-61.805,154.679-54.462"/>
	<path fill="#F37F7E" d="M141.383-39.666c-8.159,0-14.797-6.638-14.797-14.796c0-8.159,6.638-14.797,14.797-14.797
		c8.157,0,14.796,6.638,14.796,14.797C156.179-46.304,149.54-39.666,141.383-39.666 M141.383-66.259
		c-6.505,0-11.797,5.292-11.797,11.797c0,6.504,5.292,11.796,11.797,11.796c6.504,0,11.796-5.292,11.796-11.796
		C153.179-60.967,147.887-66.259,141.383-66.259"/>
	<path fill="#F37F7E" d="M148.283-54.461h-0.003c0,0.365-0.144,0.717-0.402,0.976c-0.26,0.259-0.611,0.403-0.977,0.403h-4.14v4.141
		c0,0.763-0.619,1.379-1.379,1.379c-0.765,0-1.382-0.616-1.382-1.379v-4.141h-4.142c-0.76,0-1.379-0.618-1.379-1.379
		c0-0.763,0.619-1.382,1.379-1.382h4.142v-4.14c0-0.761,0.617-1.379,1.382-1.379c0.76,0,1.379,0.618,1.379,1.379v4.14h4.14
		c0.365,0,0.717,0.148,0.977,0.407c0.259,0.258,0.402,0.608,0.402,0.975H148.283z"/>
</g>
<path fill="#F37F7E" d="M214.884-95.558c-5.448,0-9.881,4.433-9.881,9.882c0,5.448,4.433,9.881,9.881,9.881
	c5.449,0,9.882-4.433,9.882-9.881C224.766-91.125,220.333-95.558,214.884-95.558 M221.317-85.676c0,3.547-2.886,6.432-6.433,6.432
	c-3.546,0-6.431-2.885-6.431-6.432s2.885-6.433,6.431-6.433C218.431-92.109,221.317-89.223,221.317-85.676"/>
<path fill="#F37F7E" d="M214.889-100.996h-0.005h-0.001c-8.446,0.013-15.308,6.895-15.297,15.343
	c0.008,5.704,3.13,10.864,8.162,13.521v21.803c0,2.434,1.981,4.427,4.417,4.443h0.995v5.074c0,0.951,0.773,1.724,1.724,1.724
	c0.951,0,1.725-0.773,1.725-1.724v-5.074h0.994c2.45,0,4.444-1.993,4.444-4.443v-21.803c3.545-1.871,6.173-4.993,7.413-8.813
	c1.264-3.892,0.937-8.043-0.922-11.689C225.909-97.792,220.679-100.996,214.889-100.996 M226.754-85.676
	c0,6.545-5.325,11.871-11.87,11.871s-11.87-5.326-11.87-11.871s5.325-11.871,11.87-11.871S226.754-92.221,226.754-85.676
	 M218.598-70.815v16.042h-7.427v-16.042C213.61-70.19,216.158-70.19,218.598-70.815 M218.598-51.323v0.994
	c0,0.548-0.446,0.994-0.995,0.994h-5.438c-0.547,0-0.994-0.446-0.994-0.994v-0.994H218.598z"/>
<path fill="#F37F7E" d="M261.109-100.956h-8.16c-8.408,0.015-15.261,6.87-15.278,15.28v35.347c0,2.428,1.976,4.403,4.403,4.403
	h1.035v5.113c0,0.929,0.756,1.685,1.685,1.685s1.685-0.756,1.685-1.685v-5.113h1.034c2.429,0,4.404-1.975,4.404-4.403v-20.15h9.192
	c3.926,0,7.121-3.195,7.121-7.122v-16.318C268.183-97.799,264.988-100.956,261.109-100.956 M264.861-93.833v16.312
	c-0.004,1.425-0.818,2.716-2.068,3.344v-22.999C264.042-96.547,264.857-95.256,264.861-93.833 M248.546-51.363v1.034
	c0,0.57-0.464,1.034-1.034,1.034h-5.438c-0.569,0-1.033-0.464-1.033-1.034v-1.034H248.546z M248.546-71.077v16.344h-7.506V-76.14
	C242.968-73.744,245.595-71.968,248.546-71.077 M259.422-97.587v23.821h-6.472c-6.567,0-11.91-5.342-11.91-11.91
	c0-6.568,5.343-11.911,11.91-11.911H259.422z"/>
<path fill="#F37F7E" d="M367.428-84.434h-4.617v-19.528c0-0.94-0.765-1.706-1.705-1.706h-26.074c-0.941,0-1.705,0.765-1.705,1.706
	v19.528h-4.621c-0.939,0.001-1.705,0.766-1.705,1.706v44.068c0,0.941,0.766,1.705,1.705,1.705h32.061
	c4.612,0,8.366-3.758,8.366-8.378v-37.395C369.132-83.668,368.369-84.434,367.428-84.434 M336.735-102.257h22.666v17.824h-22.666
	V-102.257z M365.723-81.023v35.691c0,2.74-2.224,4.968-4.958,4.968h-30.354v-40.659H365.723z"/>
<path fill="#F37F7E" d="M352.304-97.268c-0.903,0-1.641,0.736-1.641,1.641v6.213c0,0.906,0.737,1.643,1.641,1.643
	c0.904,0,1.642-0.736,1.642-1.643v-6.213C353.946-96.532,353.208-97.268,352.304-97.268"/>
<path fill="#F37F7E" d="M343.828-97.268c-0.906,0-1.643,0.736-1.643,1.641v6.213c0,0.906,0.736,1.643,1.643,1.643
	c0.904,0,1.641-0.736,1.641-1.643v-6.213C345.468-96.532,344.732-97.268,343.828-97.268"/>
<path fill="#F37F7E" d="M338.494-48.62c0.121,0.172,3.057,4.198,9.494,4.198c6.42,0,9.508-4.006,9.637-4.176
	c0.332-0.44,0.244-1.064-0.195-1.398c-0.441-0.333-1.066-0.246-1.402,0.189c-0.105,0.139-2.656,3.381-8.039,3.381
	c-5.361,0-7.766-3.221-7.861-3.354c-0.196-0.276-0.504-0.422-0.818-0.422c-0.199,0-0.402,0.061-0.578,0.186
	C338.279-49.696,338.173-49.071,338.494-48.62"/>
<path fill="#F37F7E" d="M348.007-48.369c4.961,0,7.361-3.112,7.461-3.245c0.33-0.441,0.242-1.063-0.195-1.397
	c-0.438-0.333-1.064-0.25-1.402,0.187c-0.078,0.1-1.939,2.451-5.863,2.451c-3.905,0-5.657-2.331-5.727-2.424
	c-0.195-0.275-0.503-0.422-0.816-0.422c-0.2,0-0.403,0.061-0.58,0.186c-0.45,0.32-0.557,0.945-0.235,1.396
	C340.744-51.503,343.028-48.369,348.007-48.369"/>
<path fill="#F37F7E" d="M348.035-52.55c2.767,0,4.129-1.77,4.186-1.845c0.329-0.438,0.241-1.053-0.193-1.389
	c-0.433-0.335-1.059-0.254-1.4,0.174c-0.034,0.043-0.86,1.056-2.592,1.056c-1.711,0-2.482-0.993-2.506-1.024
	c-0.195-0.275-0.504-0.421-0.817-0.421c-0.201,0-0.404,0.061-0.58,0.186c-0.45,0.322-0.556,0.947-0.236,1.397
	C343.951-54.34,345.256-52.55,348.035-52.55"/>
<path fill="#F37F7E" d="M348.066-56.663c0.461,0,0.834-0.373,0.834-0.833s-0.373-0.833-0.834-0.833
	c-0.459,0-0.832,0.373-0.832,0.833S347.607-56.663,348.066-56.663"/>
<path fill="#F37F7E" d="M464.761-66.116h-2.699l1.35-2.345c0.338-0.536,0.135-1.206-0.405-1.541s-1.214-0.135-1.552,0.402
	l-1.35,2.345l-1.35-2.345c-0.337-0.537-1.012-0.737-1.552-0.402s-0.743,1.005-0.405,1.541l1.35,2.345h-2.699
	c-0.607,0-1.147,0.536-1.147,1.139s0.54,1.139,1.147,1.139h2.699l-1.35,2.346c-0.338,0.535-0.135,1.206,0.405,1.541
	s1.214,0.134,1.552-0.402l1.35-2.346l1.35,2.346c0.338,0.536,1.013,0.737,1.552,0.402c0.54-0.335,0.743-1.006,0.405-1.541
	l-1.35-2.346h2.699c0.608,0,1.147-0.536,1.147-1.139S465.37-66.116,464.761-66.116"/>
<path fill="#F37F7E" d="M449.361-66.116h-2.699l1.349-2.345c0.338-0.536,0.135-1.206-0.404-1.541
	c-0.54-0.335-1.215-0.135-1.553,0.402l-1.349,2.345l-1.351-2.345c-0.338-0.537-1.012-0.737-1.552-0.402s-0.743,1.005-0.404,1.541
	l1.349,2.345h-2.699c-0.606,0-1.146,0.536-1.146,1.139s0.54,1.139,1.146,1.139h2.699l-1.349,2.346
	c-0.339,0.535-0.136,1.206,0.404,1.541s1.214,0.134,1.552-0.402l1.351-2.346l1.349,2.346c0.338,0.536,1.013,0.737,1.553,0.402
	c0.539-0.335,0.742-1.006,0.404-1.541l-1.349-2.346h2.699c0.606,0,1.146-0.536,1.146-1.139S449.967-66.116,449.361-66.116"/>
<path fill="#F37F7E" d="M434.027-66.116h-2.698l1.349-2.345c0.338-0.536,0.135-1.206-0.405-1.541
	c-0.539-0.335-1.214-0.135-1.552,0.402l-1.349,2.345l-1.351-2.345c-0.338-0.537-1.08-0.67-1.62-0.402
	c-0.54,0.335-0.742,1.005-0.404,1.608l1.35,2.345h-2.699c-0.607,0-1.147,0.536-1.147,1.139c0,0.604,0.54,1.139,1.147,1.139h2.699
	l-1.35,2.345c-0.338,0.469-0.136,1.14,0.404,1.475s1.215,0.134,1.553-0.402l1.35-2.346l1.35,2.346
	c0.337,0.536,1.013,0.737,1.553,0.402s0.741-1.006,0.404-1.541l-1.35-2.346h2.699c0.607,0,1.147-0.536,1.147-1.139
	S434.634-66.116,434.027-66.116"/>
<path fill="#F37F7E" d="M480.163-66.131h-2.699l1.349-2.345c0.339-0.536,0.136-1.206-0.404-1.541
	c-0.54-0.268-1.214-0.135-1.553,0.469l-1.349,2.345l-1.35-2.345c-0.338-0.603-1.013-0.737-1.553-0.469
	c-0.54,0.335-0.742,1.005-0.404,1.541l1.349,2.345h-2.699c-0.606,0-1.146,0.536-1.146,1.139s0.54,1.139,1.146,1.139h2.699
	l-1.349,2.346c-0.338,0.535-0.136,1.206,0.404,1.541s1.215,0.134,1.553-0.402l1.35-2.346l1.349,2.346
	c0.339,0.536,1.013,0.737,1.553,0.402s0.743-1.006,0.404-1.541l-1.349-2.346h2.699c0.606,0,1.146-0.536,1.146-1.139
	S480.837-66.131,480.163-66.131"/>
<path fill="#F37F7E" d="M485.122-75.768h-65.435c-0.902,0-1.692,0.789-1.692,1.689v18.205c0,0.947,0.744,1.688,1.692,1.688h65.435
	c0.902,0,1.693-0.788,1.693-1.688v-18.205C486.815-75.026,486.071-75.768,485.122-75.768 M483.428-57.562h-62.046v-14.829h62.046
	V-57.562z"/>
<path fill="#F37F7E" d="M-147.769,42.265c-0.121-0.172-3.057-4.198-9.495-4.198c-6.42,0-9.508,4.006-9.637,4.176
	c-0.331,0.44-0.243,1.064,0.195,1.398c0.441,0.333,1.067,0.246,1.403-0.189c0.105-0.139,2.656-3.381,8.038-3.381
	c5.362,0,7.766,3.221,7.862,3.354c0.195,0.276,0.504,0.422,0.817,0.422c0.2,0,0.403-0.061,0.579-0.186
	C-147.554,43.34-147.449,42.715-147.769,42.265"/>
<path fill="#F37F7E" d="M-157.283,42.014c-4.961,0-7.361,3.112-7.461,3.245c-0.331,0.44-0.243,1.062,0.194,1.396
	c0.438,0.333,1.065,0.25,1.403-0.187c0.077-0.1,1.939-2.451,5.863-2.451c3.905,0,5.657,2.331,5.726,2.424
	c0.195,0.275,0.503,0.422,0.817,0.422c0.2,0,0.403-0.061,0.579-0.186c0.451-0.32,0.557-0.945,0.236-1.396
	C-150.019,45.147-152.304,42.014-157.283,42.014"/>
<path fill="#F37F7E" d="M-157.311,46.194c-2.766,0-4.128,1.77-4.186,1.845c-0.328,0.438-0.24,1.053,0.193,1.389
	c0.434,0.335,1.059,0.254,1.401-0.174c0.034-0.043,0.859-1.056,2.591-1.056c1.711,0,2.482,0.993,2.507,1.024
	c0.195,0.275,0.504,0.421,0.817,0.421c0.201,0,0.403-0.06,0.58-0.185c0.449-0.322,0.556-0.947,0.235-1.398
	C-153.226,47.984-154.532,46.194-157.311,46.194"/>
<path fill="#F37F7E" d="M-157.342,50.307c-0.46,0-0.833,0.373-0.833,0.833c0,0.46,0.373,0.833,0.833,0.833s0.833-0.373,0.833-0.833
	C-156.509,50.68-156.882,50.307-157.342,50.307"/>
<path fill="#F37F7E" d="M-145.876,25.244h-22.945c-2.672,0-4.845,2.173-4.845,4.845v29.833c0,2.672,2.173,4.845,4.845,4.845h22.946
	c2.672,0,4.845-2.173,4.845-4.845V30.089C-141.032,27.417-143.206,25.244-145.876,25.244 M-170.369,30.089
	c0-0.853,0.694-1.547,1.547-1.547h22.946c0.854,0,1.548,0.694,1.548,1.547l-0.001,29.833c0,0.854-0.694,1.548-1.548,1.548h-22.945
	c-0.853,0-1.547-0.694-1.547-1.548V30.089z"/>
<path fill="#F37F7E" d="M-135.776,29.774h-0.294v-1.61c0-4.045-3.04-7.454-7.007-7.966l-3.305-6.492
	c-0.882-1.731-3.012-3.036-4.955-3.036h-12.025c-1.942,0-4.072,1.306-4.955,3.037l-3.305,6.492
	c-3.967,0.511-7.007,3.919-7.007,7.965v33.685c0,4.038,3.034,7.446,6.993,7.965l3.319,6.518c0.882,1.732,3.012,3.036,4.954,3.036
	h12.026c1.942,0,4.072-1.304,4.955-3.036l3.318-6.518c3.959-0.519,6.993-3.927,6.993-7.965V42.26h0.294
	c1.791,0,3.247-1.456,3.247-3.247V33.02C-132.529,31.23-133.986,29.774-135.776,29.774 M-139.366,28.164v33.684
	c0,2.615-2.13,4.744-4.745,4.744h-26.477c-2.615,0-4.743-2.129-4.743-4.744V28.164c0-2.615,2.128-4.744,4.743-4.744h26.478
	C-141.495,23.42-139.366,25.549-139.366,28.164 M-165.377,15.203c0.318-0.623,1.316-1.235,2.016-1.235h12.026
	c0.699,0,1.697,0.612,2.015,1.235l2.506,4.921h-21.067L-165.377,15.203z M-146.803,69.889l-2.518,4.944
	c-0.317,0.624-1.316,1.237-2.016,1.237h-12.025c-0.699,0-1.697-0.613-2.015-1.237l-2.518-4.944H-146.803z"/>
<path fill="#F37F7E" d="M-82.258,33.003c-0.863,0-1.565,0.793-1.565,1.767c0,0.973,0.702,1.766,1.565,1.766
	c0.863,0,1.566-0.793,1.566-1.766C-80.692,33.796-81.395,33.003-82.258,33.003"/>
<path fill="#F37F7E" d="M-64.288,31.899c-0.437-0.872-1.419-1.269-2.19-0.879c-0.772,0.387-1.045,1.409-0.61,2.279
	c0.21,0.42,0.551,0.744,0.961,0.911c0.196,0.079,0.397,0.119,0.594,0.119c0.221,0,0.436-0.05,0.636-0.151
	C-64.125,33.793-63.852,32.771-64.288,31.899"/>
<path fill="#F37F7E" d="M-65.301,26.813c-0.061-0.167-0.416-0.997-1.51-1.17c-0.447-0.071-1.078-0.081-1.552,0.267
	c-0.315,0.231-0.509,0.587-0.58,1.056c-0.046,0.317,0.092,0.461,0.217,0.528c0.088,0.047,0.186,0.071,0.279,0.071
	c0.05,0,0.1-0.008,0.145-0.023c0.098-0.031,0.174-0.096,0.216-0.182c0.265-0.544,0.579-0.665,1.02-0.665
	c0.023,0,0.046,0,0.071,0.001c0.29,0.007,0.902,0.3,1.123,0.598c0.085,0.116,0.24,0.33,0.491,0.184
	C-65.132,27.333-65.257,26.933-65.301,26.813"/>
<path fill="#F37F7E" d="M-81.638,27.765c-0.562-0.171-1.154,0.047-1.553,0.261h-0.001c-0.973,0.526-1.035,1.427-1.038,1.603
	c-0.002,0.128,0.015,0.547,0.295,0.602c0.027,0.005,0.053,0.008,0.076,0.008c0.224,0,0.291-0.222,0.335-0.367
	c0.103-0.331,0.584-0.81,0.855-0.913c0.448-0.171,0.796-0.179,1.249,0.267c0.068,0.067,0.153,0.102,0.264,0.101
	c0.135-0.003,0.279-0.073,0.384-0.186c0.096-0.105,0.179-0.287,0.03-0.568C-80.963,28.152-81.264,27.88-81.638,27.765"/>
<path fill="#F37F7E" d="M-69.291,38.875c-0.205-0.1-0.457-0.045-0.604,0.127c-0.012,0.015-1.243,1.412-2.433,1.837
	c-1.314,0.468-2.942,0.125-4.362-0.917c-0.174-0.128-0.416-0.13-0.592-0.008c-0.176,0.124-0.249,0.375-0.187,0.581
	c0.115,0.377,1.621,3.046,4.467,3.123c0.029,0.001,0.058,0.001,0.087,0.001c2.274,0,3.488-2.454,3.849-3.922
	C-69.007,39.46-68.909,39.062-69.291,38.875"/>
<path fill="#FFFFFF" d="M-82.335,34.05c0,0.329-0.234,0.595-0.522,0.595c-0.289,0-0.523-0.266-0.523-0.595s0.234-0.595,0.523-0.595
	C-82.569,33.455-82.335,33.721-82.335,34.05"/>
<path fill="#FFFFFF" d="M-65.163,31.617c0.08,0.33-0.09,0.655-0.38,0.725c-0.29,0.07-0.589-0.141-0.669-0.471s0.09-0.654,0.38-0.724
	C-65.542,31.076-65.243,31.287-65.163,31.617"/>
<path fill="#F37F7E" d="M-47.128,14.999c-0.166-0.5-0.416-1.029-0.806-1.547c-0.843-1.119-2.12-1.761-3.503-1.761
	c-0.691,0-1.366,0.159-2.006,0.471c-1.849,0.901-2.626,3.097-1.844,5.222c0.102,0.278,0.222,0.556,0.339,0.824
	c0.004,0.008,0.008,0.017,0.011,0.025c-0.256,0.594-0.449,1.169-0.625,1.694l-0.065,0.193c-0.452,1.337-0.53,2.722-0.231,4.114
	c0.053,0.244,0.038,0.456-0.048,0.687l-0.213,0.581l-0.04,0.107c-0.006,0.017-0.012,0.034-0.019,0.051
	c-3.764-5.615-10.152-9.176-17.223-9.176c-0.746,0-1.505,0.041-2.259,0.123c-0.093,0.003-0.185,0.004-0.276,0.004
	c-5.447,0-8.474-4.811-8.6-5.016c-0.56-0.909-1.545-1.433-2.566-1.433c-0.346,0-0.696,0.06-1.035,0.185
	c-1.341,0.497-2.15,1.863-1.926,3.275c0.204,1.29,0.513,2.435,0.89,3.45c-0.227,0.515-0.32,1.097-0.244,1.681
	c0.212,1.622,0.711,2.882,1.31,3.851c-0.671,0.676-1.295,1.398-1.87,2.163c-0.023,0.027-0.045,0.055-0.067,0.082
	c-1.181,1.505-2.119,3.13-2.803,4.853c-0.783-1.149-2.173-2.16-4.627-2.334c-0.122-0.008-0.242-0.012-0.362-0.012
	c-1.645-0.001-3.209,0.796-4.291,2.184c-0.919,1.179-1.426,2.687-1.426,4.246c0,0.07,0.002,0.2,0.004,0.32l0.003,0.132
	c-0.031,1.024,0.048,1.976,0.24,2.903c0.273,1.32,0.759,2.629,1.445,3.892c1.574,3.525,5.219,7.237,10.835,7.297
	c1.166,1.812,2.536,3.374,4.087,4.658c1.241,1.026,2.57,1.902,3.952,2.605c1,0.524,2.053,0.968,3.139,1.324
	c-0.015,0.662-0.039,2.011-0.088,4.917c-0.029,1.705-0.064,3.755-0.094,5.34c-0.802-0.136-1.704-0.24-2.59-0.24
	c-0.147,0-0.291,0.002-0.434,0.008c-1.71,0.014-3.357,0.459-4.93,1.324c-1.943,1.067-3.197,2.85-3.632,5.16
	c-0.035,0.129-0.068,0.273-0.093,0.437c-0.02,0.115-0.032,0.231-0.038,0.348c-0.104,1.339,0.411,2.205,0.864,2.699
	c0.608,0.663,1.45,1.044,2.383,1.081c0.073,0.011,0.134,0.019,0.179,0.025l0.068,0.009c0.518,0.065,1.093,0.138,1.709,0.158
	c0.365,0.012,0.735,0.021,1.11,0.021c1.012,0,1.868-0.069,2.666-0.215c0.482-0.018,0.917-0.07,1.28-0.114l0.316-0.037
	c3.242-0.358,5.878-0.79,8.289-1.359c0.232-0.055,0.62-0.146,1.058-0.318c0.795,0.507,1.609,0.816,2.37,1.073
	c1.598,0.54,3.581,1.21,5.755,1.369c0.656,0.074,1.308,0.112,1.937,0.112c0.712,0,1.392-0.049,2.023-0.146
	c0.277-0.03,0.551-0.083,0.815-0.159c0.129-0.034,0.255-0.076,0.378-0.125c0.744-0.282,1.404-0.749,1.913-1.356
	c0.514-0.613,1.585-2.31,0.392-4.801c-0.866-1.807-2.328-3.183-4.471-4.207c-0.902-0.431-1.894-0.65-2.946-0.65
	c-0.119,0-0.236,0.003-0.352,0.009c-0.159-0.936-0.319-1.89-0.465-2.832c-0.187-1.208-0.37-2.418-0.553-3.627
	c-0.219-1.444-0.44-2.904-0.667-4.359c7.786-3.106,13.024-10.678,13.024-19.25c0-0.049-0.001-0.098-0.001-0.148
	c0.687-0.898,1.238-1.824,1.74-2.668l0.139-0.234c0.79-1.324,1.483-2.675,2.153-3.981c0.394-0.767,0.794-1.548,1.198-2.292
	c1.102-0.204,2.024-0.659,2.749-1.356c1.427-1.2,2.272-3.12,2.272-5.186C-42.422,18.092-44.429,15.474-47.128,14.999
	 M-46.706,24.302c-0.343,0.364-0.822,0.58-1.484,0.668c-0.814,0.109-1.362,0.521-1.832,1.38c-0.443,0.812-0.872,1.649-1.288,2.459
	c-0.649,1.265-1.32,2.574-2.062,3.818l-0.14,0.235c-0.648,1.089-1.316,2.21-2.202,3.162c0.026,0.393,0.041,0.788,0.041,1.188
	c0,8.273-5.668,15.222-13.332,17.178c-0.026,0.111-0.02,0.25,0.01,0.434c0.348,2.146,0.679,4.332,0.998,6.446
	c0.184,1.212,0.367,2.425,0.555,3.637c0.174,1.125,0.369,2.267,0.557,3.371c0.059,0.345,0.118,0.69,0.176,1.035
	c0.033,0.192,0.072,0.395,0.141,0.579c0.177,0.472,0.415,0.684,0.8,0.684c0.112,0,0.236-0.018,0.375-0.053
	c0.54-0.135,1.128-0.252,1.733-0.252c0.546,0,1.105,0.096,1.653,0.357c1.521,0.727,2.493,1.615,3.058,2.796
	c0.209,0.436,0.438,1.074,0.015,1.578c-0.19,0.226-0.433,0.392-0.71,0.49c-0.016,0.008-0.034,0.015-0.06,0.02l-0.008,0.002
	c-0.129,0.04-0.266,0.067-0.407,0.078c-0.555,0.09-1.119,0.123-1.645,0.123c-0.637,0-1.218-0.048-1.66-0.1
	c-1.808-0.122-3.528-0.702-5.071-1.223c-0.543-0.184-1.169-0.409-1.722-0.764c-0.511-0.327-0.804-0.686-0.87-1.066
	c-0.052-0.298,0.038-0.601,0.267-0.9c0.835-1.086,0.698-2.22,0.553-3.421c-0.018-0.153-0.036-0.306-0.053-0.459
	c-0.194-1.827-0.34-3.69-0.481-5.49c-0.073-0.921-0.147-1.872-0.227-2.807c-0.066-0.765-0.148-1.542-0.228-2.293
	c-0.072-0.681-0.147-1.384-0.209-2.077c-0.011-0.119-0.032-0.208-0.065-0.273c-0.615,0.064-1.239,0.098-1.872,0.098
	c-0.375,0-0.748-0.013-1.118-0.036c-0.013,0.054-0.012,0.132-0.012,0.242c-0.01,5.564,0.529,12.844,0.597,14.203
	c0.041,0.823,0.494,1.505,1.006,2.065c0.593,0.651,0.804,1.069,0.702,1.396c-0.1,0.326-0.503,0.55-1.346,0.749
	c-2.288,0.54-4.81,0.953-7.936,1.298c-0.113,0.013-0.225,0.026-0.338,0.039c-0.404,0.049-0.818,0.098-1.239,0.098h-0.006
	c-0.779,0.166-1.571,0.21-2.343,0.21c-0.342,0-0.681-0.009-1.013-0.019c-0.477-0.016-0.959-0.077-1.425-0.136l-0.072-0.009
	c-0.092-0.012-0.189-0.025-0.282-0.053h-0.001c-0.044,0.005-0.084,0.007-0.121,0.007c-0.528,0-0.403-0.48-0.403-0.633
	c0,0,0.001-0.001,0.002-0.004c0.007-0.066,0.024-0.132,0.04-0.193c0.011-0.041,0.022-0.082,0.029-0.121
	c0.262-1.471,0.962-2.501,2.14-3.148c1.17-0.643,2.328-0.953,3.534-0.953h0.016c0.127-0.006,0.248-0.008,0.37-0.008
	c2,0,4.261,0.701,4.326,0.721c0.021,0.005,0.042,0.01,0.063,0.013c0.104,0.015,0.198,0.023,0.282,0.023
	c0.199,0,0.346-0.043,0.453-0.129c0.152-0.123,0.307-0.288,0.395-0.633c0.053-0.209,0.234-13.107,0.268-13.438
	c0.016-0.155-0.035-1.34-0.029-1.61c0.002-0.128-0.021-0.223-0.074-0.294c-1.66-0.336-3.235-0.905-4.692-1.669
	c-1.183-0.601-2.319-1.348-3.398-2.241c-1.597-1.322-2.977-3.007-4.102-5.01c-0.138-0.244-0.279-0.367-0.497-0.411
	c-0.438,0.051-0.858,0.075-1.261,0.075c-5.51,0-7.8-4.509-8.282-5.626c-0.53-0.955-0.959-2.006-1.2-3.172
	c-0.147-0.708-0.205-1.446-0.178-2.255c0.001-0.046-0.007-0.373-0.007-0.492c0-1.831,1.206-3.431,2.716-3.43
	c0.05,0,0.101,0.001,0.152,0.005c1.993,0.141,2.621,0.997,2.801,2.265c0.063,0.377,0.086,0.709,0.066,1.008
	c-0.001,0.013-0.001,0.024-0.001,0.037c0,0.031,0,0.061,0,0.091c0.007,0.094,0.031,0.16,0.073,0.197
	c0.036,0.031,0.088,0.046,0.159,0.046c0.053,0,0.117-0.008,0.194-0.025c0.08-0.017,0.162-0.042,0.24-0.065
	c0.165-0.049,0.338-0.096,0.523-0.097c0.392,0.005,0.72,0.169,0.902,0.45c0.18,0.279,0.193,0.643,0.038,0.998
	c-0.106,0.24-0.272,0.451-0.524,0.662c-0.093,0.078-0.187,0.156-0.28,0.235c-0.352,0.292-0.716,0.595-1.052,0.915
	c-0.928,0.884-1.092,1.896-0.501,3.092c0.709,1.434,1.89,2.224,3.611,2.414c0.249,0.028,0.444,0.048,0.587,0.048
	c0.138,0,0.227-0.019,0.27-0.069c0.088-0.102,0.019-0.389-0.101-0.85c-0.787-3.018-0.775-6.09,0.035-9.131
	c0.567-2.125,1.562-4.098,2.961-5.881c0.001,0.002,0.002,0.003,0.004,0.005c1.12-1.52,2.475-2.855,4.015-3.95
	c-0.005-0.002-2.311-0.824-2.777-4.391c0,0,1.179,2.464,4.456,3.059c-1.141-0.616-4.241-2.765-5.114-8.272
	c0,0,3.868,6.459,11.164,6.459c0.159,0,0.32-0.003,0.483-0.009l-0.005,0.001c0.675-0.078,1.361-0.119,2.057-0.119
	c8.279,0,15.231,5.674,17.182,13.345c0.896-1.426,1.59-2.783,2.109-4.132c0.263-0.681,0.519-1.378,0.766-2.052
	c0.084-0.228,0.168-0.456,0.253-0.684c0.282-0.764,0.338-1.557,0.167-2.356c-0.184-0.857-0.137-1.707,0.14-2.528l0.066-0.195
	c0.22-0.655,0.448-1.333,0.773-1.966c0.263-0.511,0.109-1.045-0.078-1.5c-0.056-0.138-0.116-0.274-0.176-0.41
	c-0.094-0.214-0.191-0.435-0.273-0.658c-0.243-0.66-0.101-1.273,0.345-1.49c0.229-0.112,0.464-0.167,0.69-0.167
	c0.429,0,0.828,0.196,1.107,0.567c0.407,0.54,0.491,1.176,0.572,1.791l0.003,0.023c0.071,0.536,0.107,0.806,0.241,0.905
	c0.051,0.037,0.124,0.053,0.222,0.053c0.155,0,0.375-0.039,0.677-0.093c0.116-0.02,0.232-0.03,0.347-0.03
	c0.084,0,0.167,0.005,0.249,0.015h0.002c1.433,0,2.595,1.533,2.595,3.425C-45.422,22.607-45.938,23.707-46.706,24.302"/>
<path fill="#F37F7E" d="M51.535,38.188c0.956,0,1.731-0.775,1.731-1.731v-1.525h-0.003V16.01c0-1.23-0.48-2.385-1.352-3.255
	c-0.865-0.862-2.011-1.336-3.229-1.336h-0.013H20.52L9.596,22.342v53.485c0,2.532,2.06,4.592,4.592,4.592H48.67
	c2.532,0,4.593-2.06,4.593-4.592v-0.182l0.003-0.415c0-0.957-0.775-1.732-1.731-1.732s-1.731,0.775-1.731,1.732v0.415h-0.003v0.194
	c0,0.624-0.507,1.132-1.131,1.132H14.188c-0.624,0-1.132-0.508-1.132-1.132V23.774l8.894-8.894h26.72
	c0.624,0,1.131,0.507,1.131,1.13v18.922h0.003v1.525C49.804,37.413,50.579,38.188,51.535,38.188"/>
<path fill="#F37F7E" d="M17.336,40.294c0-0.171,0.032-0.333,0.099-0.486c0.066-0.152,0.158-0.285,0.272-0.399
	c0.114-0.115,0.247-0.205,0.4-0.273c0.151-0.066,0.314-0.099,0.486-0.099h5.15c0.776,0,1.454,0.096,2.035,0.288
	c0.581,0.194,1.066,0.476,1.454,0.847C27.62,40.544,27.91,41,28.104,41.54c0.192,0.541,0.289,1.159,0.289,1.853
	c0,0.682-0.097,1.29-0.289,1.826c-0.194,0.535-0.484,0.99-0.872,1.361c-0.388,0.372-0.873,0.654-1.454,0.846
	c-0.581,0.193-1.259,0.285-2.035,0.275H19.85v4.429c0,0.172-0.031,0.338-0.09,0.5c-0.06,0.162-0.144,0.304-0.253,0.425
	c-0.11,0.122-0.242,0.219-0.397,0.293c-0.154,0.073-0.328,0.111-0.517,0.111c-0.197,0-0.371-0.038-0.526-0.111
	c-0.154-0.074-0.286-0.171-0.392-0.293c-0.108-0.121-0.191-0.263-0.251-0.425c-0.059-0.162-0.088-0.328-0.088-0.5V40.294z
	 M23.092,45.565c0.967,0.015,1.678-0.168,2.132-0.546c0.456-0.379,0.683-0.92,0.683-1.626c0-0.714-0.227-1.258-0.683-1.631
	c-0.454-0.374-1.165-0.561-2.132-0.561H19.85v4.364H23.092z"/>
<path fill="#F37F7E" d="M32.581,44.916c0.081-0.295,0.18-0.576,0.296-0.843c0.117-0.267,0.26-0.5,0.429-0.7s0.371-0.358,0.608-0.475
	c0.235-0.116,0.515-0.174,0.839-0.174c0.204,0,0.392,0.03,0.563,0.092c0.172,0.062,0.321,0.149,0.447,0.261
	c0.127,0.111,0.226,0.243,0.296,0.392c0.073,0.151,0.108,0.314,0.108,0.49c0,0.238-0.035,0.438-0.108,0.6
	c-0.07,0.162-0.166,0.292-0.285,0.393c-0.119,0.099-0.254,0.172-0.403,0.217c-0.151,0.046-0.304,0.069-0.461,0.069h-0.194
	c-0.309,0-0.591,0.063-0.845,0.188c-0.256,0.127-0.474,0.323-0.654,0.59c-0.182,0.267-0.323,0.607-0.425,1.022
	c-0.102,0.413-0.154,0.909-0.154,1.486v3.664c0,0.186-0.028,0.356-0.086,0.51c-0.057,0.155-0.137,0.29-0.239,0.404
	c-0.102,0.115-0.227,0.203-0.375,0.264c-0.148,0.062-0.314,0.093-0.5,0.093s-0.353-0.031-0.504-0.093
	c-0.149-0.061-0.276-0.149-0.378-0.264c-0.103-0.114-0.181-0.249-0.236-0.404c-0.054-0.154-0.082-0.324-0.082-0.51v-8.129
	c0-0.186,0.025-0.356,0.075-0.511c0.05-0.155,0.124-0.289,0.221-0.403c0.098-0.115,0.219-0.202,0.365-0.265
	c0.145-0.061,0.311-0.093,0.496-0.093c0.186,0,0.35,0.032,0.493,0.093c0.143,0.063,0.264,0.15,0.361,0.265
	c0.098,0.114,0.171,0.248,0.222,0.403c0.049,0.155,0.074,0.325,0.074,0.511v0.857H32.581z"/>
<path fill="#F37F7E" d="M39.312,48.859c0.019,0.357,0.094,0.695,0.222,1.014c0.129,0.319,0.31,0.596,0.543,0.832
	c0.233,0.236,0.52,0.423,0.861,0.561c0.34,0.139,0.736,0.207,1.19,0.207c0.299,0,0.558-0.032,0.774-0.096
	c0.217-0.065,0.408-0.143,0.571-0.236c0.165-0.093,0.31-0.196,0.437-0.307c0.125-0.112,0.248-0.214,0.367-0.308
	c0.119-0.092,0.244-0.171,0.376-0.235c0.13-0.065,0.283-0.097,0.46-0.097c0.158,0,0.301,0.029,0.428,0.086
	c0.13,0.057,0.24,0.132,0.332,0.225c0.094,0.093,0.166,0.199,0.219,0.318c0.052,0.12,0.081,0.241,0.085,0.364
	c0.015,0.315-0.037,0.592-0.153,0.833c-0.117,0.24-0.278,0.448-0.483,0.625c-0.205,0.176-0.445,0.324-0.721,0.446
	c-0.276,0.121-0.567,0.217-0.875,0.29c-0.307,0.07-0.621,0.122-0.943,0.153c-0.321,0.031-0.628,0.047-0.918,0.047
	c-0.914,0-1.702-0.137-2.364-0.411s-1.205-0.655-1.629-1.144c-0.424-0.487-0.737-1.068-0.939-1.742
	c-0.203-0.674-0.304-1.408-0.304-2.204c0-0.814,0.126-1.552,0.378-2.214c0.253-0.662,0.607-1.227,1.061-1.697
	c0.456-0.469,1-0.832,1.633-1.09c0.633-0.257,1.33-0.384,2.093-0.384c0.776,0,1.469,0.126,2.079,0.382
	c0.609,0.254,1.123,0.602,1.542,1.046c0.42,0.442,0.739,0.965,0.958,1.568c0.219,0.602,0.328,1.252,0.328,1.947
	c0,0.233-0.02,0.428-0.061,0.585c-0.04,0.158-0.106,0.282-0.2,0.375c-0.092,0.093-0.219,0.16-0.378,0.2
	c-0.16,0.041-0.356,0.061-0.589,0.061H39.312z M41.942,44.63c-0.391,0-0.735,0.076-1.035,0.229c-0.3,0.152-0.558,0.35-0.772,0.592
	c-0.214,0.244-0.386,0.516-0.518,0.818c-0.13,0.303-0.218,0.602-0.26,0.896h5.093c-0.043-0.314-0.121-0.622-0.236-0.924
	c-0.114-0.302-0.272-0.574-0.472-0.815c-0.2-0.24-0.449-0.433-0.746-0.578C42.698,44.702,42.347,44.63,41.942,44.63"/>
<path fill="#F37F7E" d="M17.07,59.728c0-0.176,0.029-0.342,0.086-0.496c0.057-0.155,0.137-0.29,0.239-0.404
	c0.103-0.114,0.228-0.204,0.375-0.271c0.148-0.067,0.315-0.1,0.501-0.1c0.185,0,0.353,0.033,0.503,0.1
	c0.15,0.067,0.277,0.157,0.378,0.271c0.103,0.114,0.181,0.249,0.237,0.404c0.054,0.154,0.081,0.32,0.081,0.496
	c0.229-0.281,0.465-0.51,0.707-0.689c0.244-0.178,0.493-0.318,0.747-0.417c0.255-0.102,0.515-0.169,0.783-0.204
	c0.266-0.036,0.535-0.054,0.807-0.054c0.833,0,1.557,0.144,2.171,0.432c0.614,0.288,1.125,0.681,1.533,1.179
	c0.406,0.497,0.71,1.08,0.91,1.746c0.2,0.667,0.3,1.382,0.3,2.143c0,0.477-0.046,0.942-0.136,1.397
	c-0.091,0.454-0.226,0.886-0.407,1.292c-0.181,0.408-0.409,0.783-0.686,1.126c-0.276,0.343-0.598,0.639-0.964,0.889
	c-0.367,0.25-0.782,0.445-1.246,0.586c-0.465,0.14-0.978,0.211-1.539,0.211c-0.249,0-0.502-0.018-0.761-0.054
	c-0.26-0.036-0.518-0.1-0.776-0.193c-0.257-0.093-0.508-0.223-0.753-0.389c-0.246-0.167-0.475-0.383-0.69-0.65v3.671
	c0,0.186-0.029,0.356-0.089,0.511c-0.059,0.154-0.142,0.289-0.246,0.403c-0.105,0.115-0.231,0.203-0.379,0.265
	c-0.147,0.062-0.309,0.093-0.485,0.093c-0.182,0-0.344-0.031-0.49-0.093c-0.145-0.062-0.271-0.15-0.378-0.265
	c-0.108-0.114-0.19-0.249-0.247-0.403c-0.057-0.155-0.086-0.325-0.086-0.511V59.728z M24.907,63.957
	c0-0.438-0.045-0.867-0.132-1.286c-0.089-0.419-0.237-0.791-0.443-1.118c-0.208-0.326-0.48-0.587-0.818-0.786
	c-0.338-0.197-0.76-0.296-1.264-0.296c-0.53,0-0.976,0.095-1.34,0.286c-0.364,0.19-0.659,0.443-0.886,0.757
	c-0.226,0.314-0.391,0.675-0.492,1.082c-0.103,0.408-0.155,0.83-0.155,1.268c0,0.41,0.05,0.817,0.147,1.222
	c0.098,0.404,0.255,0.767,0.471,1.089c0.217,0.321,0.5,0.582,0.851,0.782c0.349,0.2,0.777,0.3,1.282,0.3
	c0.5,0,0.925-0.095,1.275-0.286c0.35-0.19,0.636-0.44,0.86-0.749c0.224-0.31,0.388-0.662,0.49-1.057
	C24.856,64.769,24.907,64.367,24.907,63.957"/>
<path fill="#F37F7E" d="M37.939,66.5c0,0.21,0.015,0.389,0.046,0.536c0.031,0.148,0.069,0.274,0.114,0.378
	c0.046,0.105,0.097,0.195,0.154,0.268c0.058,0.074,0.115,0.142,0.172,0.204c0.057,0.066,0.109,0.132,0.156,0.196
	c0.048,0.065,0.076,0.145,0.086,0.239c0.015,0.153-0.008,0.286-0.068,0.4c-0.059,0.115-0.142,0.212-0.247,0.29
	c-0.104,0.079-0.225,0.139-0.363,0.183c-0.138,0.041-0.278,0.065-0.421,0.07c-0.611,0.024-1.075-0.105-1.394-0.385
	c-0.319-0.281-0.49-0.688-0.514-1.222c-0.319,0.381-0.639,0.68-0.961,0.893c-0.321,0.215-0.648,0.374-0.978,0.479
	c-0.332,0.105-0.667,0.17-1.008,0.196c-0.34,0.027-0.687,0.039-1.039,0.039c-0.371,0-0.735-0.067-1.093-0.2
	c-0.357-0.132-0.675-0.323-0.954-0.571c-0.278-0.247-0.502-0.549-0.671-0.903c-0.169-0.356-0.254-0.756-0.254-1.204
	c0-0.576,0.102-1.058,0.307-1.447c0.205-0.388,0.479-0.706,0.822-0.957c0.343-0.25,0.739-0.441,1.19-0.575
	c0.449-0.133,0.922-0.236,1.417-0.307l1.708-0.2c0.185-0.024,0.362-0.057,0.532-0.1c0.169-0.043,0.318-0.11,0.446-0.204
	c0.129-0.092,0.23-0.218,0.304-0.374c0.074-0.158,0.111-0.365,0.111-0.622c0-0.248-0.054-0.454-0.161-0.622
	c-0.108-0.166-0.252-0.298-0.436-0.396c-0.183-0.098-0.394-0.167-0.632-0.207c-0.239-0.041-0.485-0.061-0.742-0.061
	c-0.368,0-0.674,0.037-0.919,0.111c-0.245,0.074-0.451,0.173-0.618,0.296c-0.166,0.125-0.308,0.269-0.424,0.436
	c-0.118,0.167-0.233,0.343-0.347,0.529c-0.11,0.185-0.243,0.317-0.4,0.393c-0.157,0.076-0.337,0.114-0.536,0.114
	c-0.153,0-0.289-0.026-0.411-0.079c-0.121-0.052-0.225-0.124-0.31-0.214c-0.086-0.091-0.153-0.195-0.2-0.314
	c-0.048-0.119-0.072-0.243-0.072-0.372c0-0.209,0.039-0.428,0.118-0.653c0.078-0.227,0.196-0.446,0.354-0.657
	c0.157-0.213,0.353-0.414,0.589-0.604c0.235-0.191,0.512-0.358,0.829-0.504c0.316-0.145,0.672-0.259,1.067-0.343
	c0.396-0.083,0.829-0.125,1.3-0.125c0.643,0,1.231,0.056,1.764,0.168c0.534,0.112,0.993,0.286,1.376,0.522
	c0.384,0.235,0.681,0.535,0.893,0.9c0.211,0.364,0.318,0.801,0.318,1.31V66.5z M35.54,63.92c-0.125,0.086-0.254,0.158-0.39,0.215
	c-0.136,0.057-0.269,0.105-0.4,0.143c-0.131,0.038-0.254,0.068-0.368,0.089c-0.114,0.022-0.21,0.039-0.286,0.054l-1.013,0.149
	c-0.314,0.053-0.594,0.121-0.836,0.204c-0.243,0.083-0.447,0.191-0.611,0.321c-0.165,0.132-0.289,0.29-0.371,0.476
	c-0.084,0.185-0.125,0.406-0.125,0.663c0,0.196,0.04,0.38,0.121,0.555c0.081,0.173,0.196,0.324,0.347,0.453
	c0.149,0.129,0.33,0.231,0.542,0.307c0.212,0.077,0.451,0.114,0.718,0.114c0.409,0,0.78-0.066,1.111-0.2
	c0.331-0.132,0.612-0.311,0.843-0.532c0.23-0.221,0.408-0.474,0.531-0.757c0.124-0.284,0.188-0.577,0.188-0.882V63.92z"/>
<path fill="#F37F7E" d="M40.35,56.028c0-0.186,0.035-0.362,0.107-0.529c0.071-0.167,0.169-0.311,0.293-0.436
	c0.124-0.123,0.268-0.221,0.435-0.293c0.167-0.071,0.343-0.107,0.53-0.107c0.184,0,0.361,0.036,0.527,0.107
	c0.167,0.072,0.313,0.17,0.436,0.293c0.124,0.125,0.221,0.269,0.294,0.436c0.07,0.167,0.107,0.343,0.107,0.529
	s-0.037,0.362-0.107,0.528c-0.073,0.167-0.17,0.313-0.294,0.437c-0.123,0.123-0.269,0.221-0.436,0.292
	c-0.166,0.071-0.343,0.108-0.527,0.108c-0.187,0-0.363-0.037-0.53-0.108c-0.167-0.071-0.311-0.169-0.435-0.292
	c-0.124-0.124-0.222-0.27-0.293-0.437C40.384,56.39,40.35,56.214,40.35,56.028 M42.906,59.728c0-0.186-0.029-0.355-0.086-0.51
	c-0.057-0.156-0.137-0.29-0.239-0.404c-0.103-0.115-0.227-0.202-0.375-0.265c-0.148-0.061-0.314-0.092-0.5-0.092
	s-0.353,0.031-0.504,0.092c-0.149,0.063-0.276,0.15-0.378,0.265c-0.103,0.114-0.181,0.248-0.236,0.404
	c-0.054,0.154-0.082,0.324-0.082,0.51v8.129c0,0.186,0.028,0.356,0.082,0.51c0.055,0.156,0.133,0.29,0.236,0.404
	c0.102,0.115,0.229,0.203,0.378,0.264c0.151,0.062,0.318,0.093,0.504,0.093s0.352-0.031,0.5-0.093
	c0.148-0.061,0.272-0.149,0.375-0.264c0.102-0.114,0.182-0.248,0.239-0.404c0.057-0.154,0.086-0.324,0.086-0.51V59.728z"/>
<path fill="#F37F7E" d="M55.289,67.857c0,0.176-0.029,0.342-0.086,0.496c-0.057,0.155-0.137,0.29-0.239,0.404
	c-0.103,0.114-0.228,0.205-0.375,0.271c-0.148,0.067-0.315,0.1-0.5,0.1c-0.186,0-0.354-0.033-0.504-0.1
	c-0.15-0.066-0.276-0.157-0.378-0.271c-0.103-0.114-0.181-0.249-0.237-0.404c-0.054-0.154-0.081-0.32-0.081-0.496
	c-0.234,0.281-0.473,0.51-0.719,0.689c-0.244,0.178-0.494,0.318-0.746,0.418c-0.253,0.1-0.511,0.168-0.775,0.203
	c-0.265,0.037-0.532,0.055-0.804,0.055c-0.833,0-1.557-0.145-2.171-0.433c-0.614-0.288-1.125-0.681-1.533-1.179
	c-0.406-0.497-0.71-1.079-0.91-1.747c-0.2-0.665-0.3-1.38-0.3-2.142c0-0.471,0.045-0.936,0.136-1.393
	c0.09-0.457,0.226-0.89,0.407-1.296c0.181-0.408,0.409-0.782,0.686-1.125c0.276-0.343,0.597-0.64,0.964-0.89
	c0.366-0.25,0.782-0.445,1.246-0.586c0.465-0.14,0.977-0.21,1.539-0.21c0.273,0,0.541,0.021,0.808,0.06
	c0.267,0.041,0.526,0.11,0.779,0.208c0.252,0.097,0.496,0.229,0.732,0.396s0.456,0.374,0.661,0.622v-3.673
	c0-0.185,0.029-0.355,0.089-0.51c0.059-0.154,0.141-0.29,0.246-0.404c0.104-0.114,0.231-0.202,0.379-0.264
	c0.147-0.062,0.309-0.092,0.486-0.092c0.176,0,0.338,0.03,0.485,0.092c0.148,0.062,0.276,0.15,0.382,0.264
	c0.108,0.114,0.19,0.25,0.247,0.404c0.057,0.155,0.086,0.325,0.086,0.51V67.857z M47.452,63.628c0,0.438,0.045,0.867,0.132,1.286
	c0.089,0.419,0.237,0.791,0.443,1.118c0.208,0.326,0.48,0.588,0.818,0.786c0.339,0.197,0.759,0.296,1.264,0.296
	c0.53,0,0.976-0.095,1.34-0.286c0.364-0.19,0.659-0.443,0.886-0.757c0.226-0.314,0.391-0.675,0.492-1.082
	c0.103-0.408,0.155-0.83,0.155-1.268c0-0.409-0.05-0.817-0.147-1.222c-0.098-0.404-0.256-0.767-0.475-1.089
	c-0.219-0.321-0.503-0.582-0.851-0.782c-0.347-0.2-0.773-0.3-1.278-0.3c-0.5,0-0.925,0.095-1.275,0.286
	c-0.35,0.19-0.637,0.441-0.86,0.75c-0.225,0.31-0.388,0.662-0.49,1.057C47.502,62.816,47.452,63.219,47.452,63.628"/>
<path fill="#F37F7E" d="M117.789,36.021c0-0.172,0.032-0.334,0.1-0.487c0.066-0.152,0.159-0.286,0.272-0.401
	c0.115-0.114,0.247-0.205,0.401-0.272c0.152-0.066,0.315-0.1,0.486-0.1h5.16c0.776,0,1.457,0.097,2.039,0.289
	c0.581,0.194,1.066,0.477,1.456,0.849c0.389,0.372,0.68,0.829,0.873,1.37c0.193,0.542,0.29,1.161,0.29,1.857
	c0,0.683-0.097,1.291-0.29,1.829c-0.193,0.536-0.484,0.991-0.873,1.363c-0.39,0.372-0.875,0.655-1.456,0.848
	c-0.582,0.193-1.263,0.285-2.039,0.275h-3.9v4.437c0,0.172-0.031,0.339-0.09,0.501c-0.061,0.162-0.146,0.305-0.254,0.426
	c-0.11,0.122-0.242,0.219-0.397,0.294c-0.155,0.073-0.329,0.11-0.519,0.11c-0.196,0-0.371-0.037-0.526-0.11
	c-0.155-0.075-0.286-0.172-0.393-0.294c-0.108-0.121-0.191-0.264-0.251-0.426c-0.06-0.162-0.09-0.329-0.09-0.501V36.021z
	 M123.556,41.301c0.969,0.015,1.681-0.168,2.136-0.547c0.456-0.38,0.685-0.921,0.685-1.628c0-0.716-0.229-1.261-0.685-1.635
	c-0.455-0.375-1.167-0.562-2.136-0.562h-3.248v4.372H123.556z"/>
<path fill="#F37F7E" d="M129.72,43.877c0-0.767,0.111-1.485,0.333-2.15c0.223-0.666,0.556-1.243,0.998-1.732
	c0.444-0.489,0.997-0.873,1.661-1.152c0.663-0.279,1.434-0.418,2.312-0.418c0.874,0,1.641,0.139,2.305,0.418
	c0.662,0.279,1.215,0.663,1.66,1.152c0.443,0.489,0.779,1.066,1.005,1.732c0.227,0.665,0.34,1.383,0.34,2.15
	c0,0.764-0.113,1.476-0.34,2.136c-0.226,0.662-0.562,1.235-1.005,1.722c-0.445,0.486-0.998,0.869-1.66,1.148
	c-0.664,0.279-1.431,0.419-2.305,0.419c-0.878,0-1.648-0.14-2.312-0.419c-0.664-0.279-1.217-0.662-1.661-1.148
	c-0.442-0.487-0.775-1.06-0.998-1.722C129.832,45.354,129.72,44.642,129.72,43.877 M132.183,43.877c0,0.55,0.072,1.032,0.222,1.449
	c0.146,0.418,0.35,0.767,0.604,1.045c0.257,0.28,0.558,0.491,0.902,0.634c0.346,0.143,0.717,0.214,1.113,0.214
	c0.381,0,0.743-0.071,1.084-0.214s0.64-0.354,0.894-0.634c0.256-0.278,0.458-0.627,0.609-1.045c0.149-0.417,0.225-0.899,0.225-1.449
	c0-0.533-0.075-1.01-0.225-1.427c-0.151-0.417-0.354-0.771-0.609-1.06c-0.254-0.288-0.553-0.507-0.894-0.658
	c-0.341-0.15-0.703-0.225-1.084-0.225c-0.396,0-0.768,0.075-1.113,0.225c-0.345,0.151-0.646,0.37-0.902,0.658
	c-0.254,0.289-0.457,0.643-0.604,1.06C132.255,42.868,132.183,43.344,132.183,43.877"/>
<path fill="#F37F7E" d="M141.567,41.581c0-0.382,0.061-0.725,0.179-1.031c0.12-0.305,0.281-0.574,0.483-0.808
	c0.203-0.234,0.443-0.434,0.72-0.601c0.276-0.167,0.571-0.303,0.883-0.408c0.313-0.105,0.639-0.183,0.974-0.233
	c0.337-0.05,0.667-0.075,0.992-0.075c0.357,0,0.712,0.026,1.062,0.079c0.351,0.052,0.686,0.127,1.004,0.221
	c0.32,0.096,0.617,0.212,0.889,0.347c0.272,0.137,0.508,0.287,0.709,0.452c0.199,0.164,0.356,0.344,0.468,0.54
	c0.112,0.195,0.168,0.399,0.168,0.608c0,0.153-0.024,0.297-0.07,0.433c-0.049,0.136-0.119,0.257-0.212,0.365
	c-0.093,0.107-0.205,0.192-0.336,0.254c-0.132,0.062-0.281,0.093-0.448,0.093c-0.114,0-0.222-0.014-0.32-0.042
	c-0.102-0.029-0.195-0.069-0.284-0.119c-0.087-0.05-0.172-0.108-0.253-0.175c-0.081-0.067-0.163-0.136-0.244-0.208
	c-0.114-0.095-0.241-0.193-0.379-0.293c-0.14-0.1-0.29-0.19-0.455-0.268c-0.164-0.079-0.342-0.143-0.532-0.194
	c-0.192-0.05-0.397-0.075-0.616-0.075c-0.253,0-0.486,0.02-0.701,0.057c-0.215,0.039-0.399,0.097-0.555,0.175
	c-0.155,0.08-0.277,0.177-0.365,0.294c-0.088,0.117-0.132,0.254-0.132,0.412c0,0.205,0.042,0.37,0.125,0.493
	c0.084,0.125,0.199,0.226,0.347,0.304c0.148,0.08,0.324,0.143,0.53,0.194c0.205,0.05,0.426,0.104,0.665,0.16l1.225,0.294
	c0.4,0.091,0.808,0.209,1.224,0.354c0.414,0.146,0.793,0.337,1.134,0.573s0.619,0.527,0.834,0.873
	c0.214,0.346,0.322,0.765,0.322,1.255c0,0.388-0.06,0.739-0.175,1.057c-0.118,0.316-0.277,0.602-0.48,0.854
	c-0.203,0.253-0.442,0.474-0.719,0.663c-0.278,0.188-0.576,0.344-0.899,0.468c-0.32,0.124-0.659,0.217-1.012,0.279
	s-0.706,0.093-1.059,0.093c-0.706,0-1.349-0.075-1.926-0.225c-0.577-0.151-1.069-0.351-1.478-0.601
	c-0.408-0.251-0.724-0.537-0.948-0.859c-0.224-0.322-0.337-0.654-0.337-0.998c0-0.143,0.021-0.28,0.062-0.412
	c0.041-0.131,0.103-0.248,0.186-0.35c0.084-0.104,0.191-0.184,0.323-0.243c0.13-0.061,0.287-0.09,0.468-0.09
	c0.248,0,0.467,0.057,0.655,0.172c0.188,0.114,0.378,0.298,0.567,0.551c0.105,0.138,0.223,0.274,0.349,0.407
	c0.127,0.134,0.276,0.252,0.454,0.354c0.176,0.104,0.387,0.187,0.63,0.251c0.244,0.064,0.534,0.097,0.874,0.097
	c0.266,0,0.512-0.024,0.735-0.072c0.225-0.048,0.419-0.118,0.583-0.211c0.165-0.093,0.292-0.206,0.384-0.339
	c0.09-0.134,0.136-0.287,0.136-0.458c0-0.216-0.041-0.398-0.121-0.548c-0.082-0.151-0.199-0.28-0.355-0.386
	c-0.153-0.108-0.342-0.201-0.561-0.28c-0.22-0.078-0.468-0.151-0.744-0.218l-1.718-0.422c-0.4-0.1-0.778-0.224-1.131-0.372
	c-0.354-0.148-0.661-0.331-0.923-0.551c-0.263-0.219-0.471-0.486-0.623-0.798C141.643,42.382,141.567,42.01,141.567,41.581"/>
<path fill="#F37F7E" d="M153.049,36.651c0-0.406,0.109-0.71,0.328-0.913c0.22-0.202,0.511-0.305,0.874-0.305
	c0.362,0,0.653,0.103,0.872,0.305c0.22,0.203,0.331,0.507,0.331,0.913v2.017h0.894c0.349,0,0.612,0.066,0.794,0.198
	c0.182,0.13,0.271,0.33,0.271,0.597c0,0.267-0.09,0.467-0.271,0.601c-0.182,0.134-0.445,0.2-0.794,0.2h-0.894v6.083
	c0,0.262,0.061,0.476,0.185,0.64c0.124,0.165,0.324,0.247,0.602,0.247c0.113,0,0.222-0.007,0.321-0.02
	c0.101-0.016,0.201-0.022,0.302-0.022c0.118,0,0.223,0.026,0.311,0.079c0.089,0.052,0.161,0.121,0.218,0.207
	c0.059,0.086,0.101,0.182,0.125,0.29c0.027,0.107,0.039,0.214,0.039,0.318c0,0.2-0.042,0.375-0.127,0.523
	c-0.086,0.147-0.205,0.268-0.354,0.361c-0.15,0.093-0.325,0.162-0.522,0.207c-0.199,0.046-0.412,0.069-0.64,0.069
	c-0.96,0-1.677-0.217-2.151-0.648c-0.475-0.432-0.712-1.07-0.712-1.915v-6.419h-0.666c-0.324,0-0.557-0.072-0.698-0.218
	c-0.141-0.145-0.21-0.34-0.21-0.583c0-0.243,0.069-0.436,0.21-0.579c0.142-0.143,0.374-0.216,0.698-0.216h0.666V36.651z"/>
<path fill="#F37F7E" d="M117.524,55.47c0-0.176,0.029-0.342,0.086-0.496c0.057-0.155,0.137-0.289,0.239-0.404
	c0.103-0.114,0.228-0.204,0.375-0.271c0.147-0.067,0.314-0.1,0.5-0.1s0.354,0.033,0.504,0.1c0.149,0.067,0.276,0.157,0.378,0.271
	c0.103,0.115,0.181,0.249,0.237,0.404c0.054,0.154,0.081,0.32,0.081,0.496c0.229-0.281,0.465-0.51,0.706-0.689
	c0.244-0.178,0.493-0.318,0.747-0.417c0.256-0.102,0.516-0.169,0.783-0.204c0.267-0.036,0.535-0.054,0.808-0.054
	c0.833,0,1.557,0.144,2.171,0.432c0.613,0.288,1.125,0.681,1.532,1.179c0.406,0.497,0.711,1.08,0.91,1.746
	c0.2,0.667,0.301,1.382,0.301,2.143c0,0.477-0.047,0.942-0.137,1.397c-0.091,0.454-0.226,0.886-0.406,1.292
	c-0.182,0.408-0.409,0.783-0.687,1.126c-0.276,0.343-0.598,0.639-0.964,0.889c-0.367,0.25-0.782,0.446-1.246,0.586
	c-0.465,0.14-0.979,0.211-1.539,0.211c-0.249,0-0.502-0.018-0.761-0.054c-0.26-0.036-0.519-0.1-0.776-0.193
	c-0.257-0.093-0.508-0.223-0.753-0.389c-0.246-0.167-0.475-0.383-0.689-0.65v3.671c0,0.186-0.029,0.356-0.09,0.511
	c-0.059,0.154-0.142,0.289-0.245,0.403c-0.105,0.115-0.231,0.203-0.38,0.265c-0.146,0.062-0.309,0.093-0.485,0.093
	c-0.182,0-0.344-0.031-0.489-0.093s-0.272-0.15-0.378-0.265c-0.108-0.114-0.19-0.249-0.247-0.403
	c-0.057-0.155-0.086-0.325-0.086-0.511V55.47z M125.361,59.699c0-0.438-0.045-0.867-0.132-1.286
	c-0.089-0.419-0.237-0.791-0.443-1.118c-0.208-0.325-0.479-0.587-0.817-0.786c-0.34-0.197-0.761-0.296-1.265-0.296
	c-0.529,0-0.976,0.095-1.34,0.286c-0.364,0.19-0.659,0.443-0.886,0.757c-0.227,0.314-0.392,0.675-0.492,1.082
	c-0.103,0.408-0.155,0.83-0.155,1.268c0,0.41,0.05,0.817,0.147,1.222c0.098,0.404,0.255,0.767,0.471,1.089
	c0.217,0.321,0.5,0.582,0.852,0.782c0.349,0.2,0.776,0.3,1.281,0.3c0.5,0,0.926-0.095,1.275-0.286c0.35-0.19,0.636-0.44,0.86-0.749
	c0.224-0.31,0.388-0.662,0.489-1.057C125.31,60.511,125.361,60.108,125.361,59.699"/>
<path fill="#F37F7E" d="M138.393,62.241c0,0.21,0.015,0.389,0.046,0.536c0.031,0.148,0.069,0.274,0.114,0.379
	c0.046,0.104,0.097,0.194,0.153,0.267c0.059,0.074,0.115,0.142,0.172,0.204c0.058,0.067,0.109,0.132,0.156,0.196
	c0.048,0.065,0.076,0.145,0.086,0.239c0.016,0.153-0.008,0.286-0.067,0.4c-0.06,0.115-0.143,0.212-0.247,0.29
	c-0.104,0.079-0.226,0.139-0.363,0.183c-0.138,0.042-0.278,0.065-0.421,0.07c-0.611,0.024-1.075-0.105-1.395-0.385
	c-0.318-0.281-0.489-0.688-0.514-1.222c-0.319,0.381-0.639,0.68-0.961,0.893c-0.321,0.215-0.647,0.374-0.978,0.479
	c-0.332,0.105-0.667,0.17-1.009,0.196c-0.34,0.027-0.687,0.039-1.039,0.039c-0.37,0-0.734-0.067-1.093-0.2
	c-0.356-0.132-0.675-0.323-0.954-0.571c-0.277-0.247-0.502-0.549-0.671-0.903c-0.169-0.356-0.254-0.756-0.254-1.204
	c0-0.576,0.103-1.058,0.307-1.447c0.205-0.387,0.479-0.706,0.822-0.957c0.343-0.249,0.739-0.441,1.19-0.575
	c0.449-0.133,0.922-0.236,1.417-0.307l1.708-0.2c0.185-0.024,0.361-0.057,0.532-0.1c0.169-0.043,0.317-0.11,0.445-0.204
	c0.129-0.092,0.23-0.218,0.305-0.374c0.073-0.158,0.11-0.365,0.11-0.622c0-0.248-0.054-0.454-0.161-0.622
	c-0.107-0.166-0.252-0.298-0.436-0.396c-0.184-0.097-0.395-0.167-0.632-0.207c-0.239-0.041-0.485-0.061-0.742-0.061
	c-0.368,0-0.674,0.037-0.919,0.111c-0.245,0.074-0.451,0.173-0.618,0.296c-0.166,0.125-0.308,0.269-0.424,0.436
	c-0.118,0.167-0.233,0.343-0.347,0.529c-0.11,0.185-0.243,0.317-0.4,0.393c-0.157,0.076-0.337,0.114-0.536,0.114
	c-0.153,0-0.289-0.026-0.411-0.079c-0.121-0.052-0.225-0.124-0.311-0.214c-0.085-0.091-0.152-0.195-0.199-0.313
	c-0.048-0.119-0.072-0.243-0.072-0.372c0-0.209,0.039-0.428,0.118-0.653c0.078-0.227,0.196-0.446,0.354-0.657
	c0.156-0.213,0.353-0.414,0.589-0.604c0.234-0.191,0.512-0.358,0.829-0.504c0.315-0.145,0.672-0.259,1.066-0.343
	c0.396-0.083,0.829-0.125,1.3-0.125c0.644,0,1.231,0.057,1.765,0.168c0.534,0.112,0.993,0.286,1.376,0.522
	c0.384,0.235,0.681,0.535,0.893,0.9c0.211,0.364,0.318,0.801,0.318,1.31V62.241z M135.993,59.663
	c-0.125,0.086-0.254,0.158-0.39,0.215s-0.27,0.105-0.4,0.143s-0.254,0.068-0.368,0.089c-0.113,0.022-0.21,0.039-0.285,0.054
	l-1.014,0.15c-0.313,0.052-0.594,0.12-0.836,0.203c-0.243,0.083-0.447,0.191-0.61,0.321c-0.165,0.132-0.289,0.29-0.371,0.476
	c-0.084,0.185-0.125,0.406-0.125,0.663c0,0.197,0.04,0.38,0.121,0.555c0.08,0.173,0.195,0.325,0.347,0.453
	c0.148,0.129,0.33,0.231,0.542,0.307c0.212,0.077,0.451,0.114,0.718,0.114c0.409,0,0.78-0.066,1.111-0.2
	c0.331-0.132,0.61-0.31,0.843-0.531c0.23-0.222,0.408-0.475,0.531-0.758c0.124-0.283,0.187-0.577,0.187-0.882V59.663z"/>
<path fill="#F37F7E" d="M140.803,51.77c0-0.187,0.034-0.362,0.106-0.529c0.071-0.167,0.169-0.311,0.293-0.436
	c0.124-0.123,0.269-0.221,0.436-0.292c0.167-0.072,0.343-0.108,0.529-0.108c0.185,0,0.361,0.036,0.527,0.108
	c0.167,0.071,0.313,0.169,0.436,0.292c0.124,0.125,0.222,0.269,0.295,0.436c0.069,0.167,0.106,0.343,0.106,0.529
	c0,0.186-0.037,0.362-0.106,0.528c-0.073,0.167-0.171,0.313-0.295,0.437c-0.122,0.123-0.269,0.221-0.436,0.292
	c-0.166,0.071-0.343,0.108-0.527,0.108c-0.187,0-0.362-0.037-0.529-0.108c-0.167-0.071-0.312-0.169-0.436-0.292
	c-0.124-0.124-0.222-0.27-0.293-0.437C140.837,52.132,140.803,51.956,140.803,51.77 M143.36,55.47c0-0.186-0.029-0.356-0.086-0.51
	c-0.057-0.156-0.137-0.29-0.239-0.404c-0.103-0.115-0.227-0.202-0.375-0.265c-0.147-0.061-0.313-0.092-0.5-0.092
	c-0.186,0-0.353,0.031-0.504,0.092c-0.148,0.063-0.276,0.15-0.378,0.265c-0.103,0.114-0.181,0.248-0.236,0.404
	c-0.054,0.154-0.082,0.324-0.082,0.51v8.129c0,0.186,0.028,0.356,0.082,0.511c0.056,0.155,0.134,0.289,0.236,0.403
	c0.102,0.115,0.229,0.203,0.378,0.264c0.151,0.062,0.318,0.094,0.504,0.094c0.187,0,0.353-0.032,0.5-0.094
	c0.148-0.061,0.272-0.149,0.375-0.264c0.103-0.114,0.183-0.248,0.239-0.403c0.057-0.155,0.086-0.325,0.086-0.511V55.47z"/>
<path fill="#F37F7E" d="M155.742,63.599c0,0.176-0.028,0.342-0.086,0.496c-0.057,0.155-0.137,0.29-0.239,0.404
	c-0.103,0.114-0.228,0.205-0.375,0.271c-0.147,0.067-0.314,0.1-0.5,0.1s-0.354-0.033-0.504-0.1
	c-0.149-0.066-0.276-0.157-0.378-0.271c-0.103-0.114-0.181-0.249-0.236-0.404c-0.055-0.154-0.081-0.32-0.081-0.496
	c-0.234,0.281-0.474,0.511-0.72,0.689c-0.243,0.178-0.493,0.318-0.746,0.419c-0.253,0.099-0.511,0.167-0.774,0.203
	c-0.265,0.036-0.532,0.054-0.804,0.054c-0.833,0-1.558-0.145-2.172-0.433c-0.613-0.288-1.125-0.681-1.532-1.179
	c-0.406-0.497-0.71-1.079-0.91-1.747c-0.2-0.665-0.3-1.38-0.3-2.142c0-0.471,0.045-0.936,0.136-1.393
	c0.09-0.457,0.226-0.889,0.407-1.296c0.181-0.408,0.409-0.782,0.686-1.125c0.276-0.343,0.598-0.64,0.964-0.89
	s0.782-0.445,1.246-0.585c0.465-0.141,0.978-0.211,1.539-0.211c0.273,0,0.541,0.02,0.809,0.06c0.267,0.041,0.525,0.11,0.778,0.208
	c0.251,0.097,0.496,0.229,0.732,0.396c0.235,0.167,0.456,0.374,0.661,0.622v-3.673c0-0.185,0.028-0.355,0.089-0.51
	c0.059-0.154,0.141-0.29,0.246-0.404c0.104-0.114,0.23-0.202,0.379-0.264c0.146-0.062,0.309-0.092,0.485-0.092
	s0.339,0.03,0.485,0.092c0.148,0.062,0.276,0.15,0.382,0.264c0.108,0.114,0.19,0.25,0.247,0.404c0.058,0.155,0.086,0.325,0.086,0.51
	V63.599z M147.905,59.37c0,0.438,0.045,0.867,0.132,1.286c0.089,0.419,0.237,0.791,0.443,1.118c0.208,0.326,0.48,0.588,0.818,0.786
	c0.339,0.197,0.759,0.296,1.264,0.296c0.53,0,0.976-0.095,1.34-0.286c0.364-0.19,0.659-0.443,0.886-0.757s0.392-0.675,0.492-1.082
	c0.104-0.408,0.155-0.83,0.155-1.268c0-0.409-0.05-0.817-0.147-1.221c-0.098-0.405-0.256-0.768-0.475-1.09
	c-0.219-0.321-0.503-0.582-0.851-0.782c-0.348-0.2-0.773-0.3-1.278-0.3c-0.5,0-0.925,0.095-1.275,0.286
	c-0.35,0.19-0.637,0.441-0.859,0.75c-0.226,0.31-0.389,0.662-0.49,1.057C147.956,58.559,147.905,58.961,147.905,59.37"/>
<path fill="#F37F7E" d="M152.004,33.912c0.956,0,1.731-0.775,1.731-1.731v-1.525h-0.004V11.734c0-1.23-0.479-2.385-1.352-3.255
	c-0.865-0.862-2.011-1.336-3.229-1.336h-0.009H120.99l-10.925,10.923v53.485c0,2.532,2.061,4.592,4.593,4.592h34.481
	c2.532,0,4.593-2.06,4.593-4.592v-0.182l0.004-0.415c0-0.957-0.775-1.732-1.731-1.732s-1.731,0.775-1.731,1.732v0.415h-0.003v0.194
	c0,0.624-0.507,1.132-1.131,1.132h-34.481c-0.624,0-1.133-0.508-1.133-1.132V19.498l8.895-8.894h26.72
	c0.624,0,1.131,0.507,1.131,1.13v18.922h0.003v1.525C150.273,33.137,151.048,33.912,152.004,33.912"/>
<path fill="#F37F7E" d="M196.02,50.349c0-0.874,0.086-1.729,0.258-2.565c0.172-0.835,0.432-1.623,0.78-2.364
	c0.348-0.74,0.78-1.421,1.302-2.044c0.519-0.621,1.127-1.156,1.823-1.602c0.694-0.446,1.479-0.796,2.353-1.048
	s1.838-0.378,2.891-0.378c1.06,0,2.029,0.126,2.909,0.378c0.881,0.252,1.672,0.602,2.374,1.048c0.701,0.446,1.316,0.981,1.842,1.602
	c0.526,0.623,0.965,1.304,1.312,2.044c0.347,0.741,0.609,1.529,0.784,2.364c0.176,0.836,0.263,1.691,0.263,2.565
	s-0.087,1.726-0.263,2.555c-0.175,0.83-0.438,1.611-0.784,2.344c-0.348,0.735-0.786,1.41-1.312,2.025
	c-0.525,0.616-1.141,1.145-1.842,1.589c-0.702,0.443-1.493,0.788-2.374,1.033c-0.88,0.246-1.85,0.369-2.909,0.369
	c-1.053,0-2.017-0.123-2.891-0.369c-0.874-0.245-1.658-0.59-2.353-1.033c-0.696-0.444-1.305-0.973-1.823-1.589
	c-0.521-0.615-0.954-1.29-1.302-2.025c-0.349-0.733-0.608-1.514-0.78-2.344C196.105,52.075,196.02,51.223,196.02,50.349
	 M199.388,50.349c0,0.587,0.05,1.169,0.147,1.746c0.099,0.578,0.252,1.13,0.46,1.656c0.207,0.527,0.472,1.014,0.794,1.464
	c0.323,0.45,0.706,0.839,1.154,1.168c0.446,0.328,0.958,0.587,1.536,0.775c0.577,0.188,1.226,0.283,1.946,0.283
	c0.733,0,1.395-0.095,1.982-0.283c0.586-0.188,1.106-0.447,1.559-0.775c0.453-0.329,0.843-0.718,1.169-1.168
	c0.324-0.45,0.592-0.937,0.799-1.464c0.207-0.526,0.359-1.078,0.459-1.656c0.099-0.577,0.147-1.159,0.147-1.746
	s-0.049-1.173-0.147-1.756c-0.1-0.584-0.252-1.14-0.459-1.666s-0.475-1.015-0.799-1.469c-0.326-0.453-0.716-0.846-1.169-1.181
	c-0.452-0.335-0.973-0.597-1.559-0.785c-0.588-0.189-1.249-0.283-1.982-0.283c-0.721,0-1.369,0.094-1.946,0.283
	c-0.578,0.188-1.09,0.45-1.536,0.785c-0.448,0.335-0.831,0.728-1.154,1.181c-0.322,0.454-0.587,0.943-0.794,1.469
	c-0.208,0.526-0.361,1.082-0.46,1.666C199.438,49.176,199.388,49.762,199.388,50.349"/>
<path fill="#F37F7E" d="M218.159,43.305c0-0.542,0.146-0.949,0.439-1.22c0.293-0.271,0.684-0.407,1.167-0.407
	c0.486,0,0.874,0.136,1.168,0.407c0.293,0.271,0.441,0.678,0.441,1.22v2.699h1.195c0.466,0,0.819,0.087,1.062,0.263
	c0.243,0.176,0.364,0.442,0.364,0.799c0,0.357-0.121,0.626-0.364,0.804c-0.243,0.179-0.597,0.268-1.062,0.268h-1.195v8.135
	c0,0.35,0.082,0.636,0.248,0.856c0.166,0.22,0.434,0.33,0.805,0.33c0.152,0,0.295-0.009,0.43-0.028
	c0.134-0.02,0.269-0.029,0.402-0.029c0.159,0,0.298,0.035,0.417,0.105c0.117,0.07,0.214,0.163,0.291,0.277
	c0.077,0.116,0.132,0.245,0.168,0.388c0.035,0.144,0.052,0.286,0.052,0.426c0,0.269-0.057,0.501-0.173,0.699
	c-0.114,0.197-0.271,0.359-0.473,0.484c-0.201,0.124-0.435,0.216-0.698,0.277c-0.265,0.06-0.551,0.091-0.857,0.091
	c-1.281,0-2.24-0.289-2.876-0.866c-0.635-0.578-0.951-1.431-0.951-2.56v-8.585h-0.892c-0.433,0-0.744-0.098-0.932-0.292
	c-0.189-0.194-0.282-0.454-0.282-0.78c0-0.325,0.093-0.583,0.282-0.775c0.188-0.191,0.499-0.287,0.932-0.287h0.892V43.305z"/>
<path fill="#F37F7E" d="M238.519,58.388c0,0.249-0.038,0.477-0.114,0.684c-0.077,0.208-0.185,0.387-0.322,0.541
	c-0.136,0.153-0.304,0.271-0.501,0.354c-0.199,0.083-0.421,0.124-0.67,0.124s-0.474-0.041-0.675-0.124s-0.37-0.201-0.508-0.354
	c-0.138-0.154-0.242-0.333-0.315-0.541c-0.074-0.207-0.111-0.435-0.111-0.684v-7.733c0-0.689-0.19-1.227-0.573-1.613
	c-0.384-0.385-0.95-0.579-1.703-0.579c-0.587,0-1.102,0.096-1.541,0.287c-0.441,0.192-0.808,0.451-1.102,0.781
	c-0.293,0.328-0.513,0.711-0.66,1.148c-0.146,0.437-0.22,0.901-0.22,1.393v6.326c0,0.248-0.039,0.476-0.115,0.683
	c-0.075,0.208-0.183,0.388-0.319,0.541c-0.139,0.154-0.306,0.272-0.503,0.355c-0.197,0.082-0.421,0.124-0.67,0.124
	s-0.475-0.042-0.676-0.124c-0.2-0.083-0.369-0.201-0.507-0.355c-0.137-0.153-0.242-0.333-0.314-0.541
	c-0.074-0.207-0.11-0.435-0.11-0.683V42.29c0-0.249,0.038-0.476,0.114-0.683c0.077-0.208,0.187-0.388,0.33-0.541
	c0.144-0.154,0.312-0.272,0.508-0.355c0.194-0.083,0.413-0.124,0.655-0.124c0.235,0,0.452,0.041,0.65,0.124
	c0.198,0.083,0.367,0.201,0.507,0.355c0.142,0.153,0.25,0.333,0.33,0.541c0.08,0.207,0.12,0.434,0.12,0.683v4.939
	c0.281-0.275,0.582-0.511,0.905-0.708c0.322-0.198,0.649-0.362,0.985-0.493c0.335-0.131,0.672-0.228,1.01-0.292
	s0.663-0.096,0.976-0.096c1.008,0,1.844,0.133,2.507,0.397c0.664,0.265,1.191,0.63,1.579,1.096c0.391,0.466,0.662,1.016,0.819,1.651
	c0.156,0.635,0.234,1.326,0.234,2.072V58.388z"/>
<path fill="#F37F7E" d="M244.207,53.938c0.025,0.479,0.125,0.932,0.297,1.358c0.172,0.428,0.414,0.8,0.729,1.116
	c0.311,0.316,0.695,0.566,1.152,0.751c0.455,0.185,0.988,0.278,1.594,0.278c0.4,0,0.748-0.043,1.037-0.13
	c0.291-0.086,0.547-0.191,0.768-0.315c0.219-0.125,0.414-0.262,0.584-0.412c0.168-0.15,0.332-0.288,0.492-0.412
	c0.158-0.124,0.326-0.229,0.502-0.315s0.381-0.13,0.617-0.13c0.211,0,0.402,0.039,0.574,0.115c0.172,0.076,0.32,0.177,0.445,0.302
	c0.125,0.124,0.221,0.267,0.293,0.426c0.068,0.159,0.107,0.322,0.113,0.488c0.02,0.421-0.049,0.792-0.205,1.114
	c-0.158,0.323-0.371,0.602-0.646,0.838c-0.273,0.237-0.596,0.436-0.967,0.598c-0.371,0.163-0.76,0.292-1.172,0.388
	c-0.412,0.095-0.832,0.164-1.264,0.206c-0.432,0.041-0.842,0.062-1.23,0.062c-1.225,0-2.281-0.183-3.168-0.551
	c-0.885-0.367-1.613-0.877-2.18-1.531c-0.57-0.654-0.988-1.432-1.26-2.335c-0.271-0.903-0.406-1.887-0.406-2.952
	c0-1.092,0.168-2.08,0.508-2.967c0.336-0.886,0.811-1.644,1.42-2.272c0.609-0.628,1.338-1.115,2.188-1.459
	c0.848-0.345,1.781-0.518,2.805-0.518c1.039,0,1.967,0.171,2.785,0.513c0.814,0.341,1.504,0.809,2.064,1.401
	c0.562,0.594,0.99,1.294,1.283,2.101c0.293,0.808,0.441,1.677,0.441,2.608c0,0.313-0.027,0.575-0.082,0.785
	s-0.145,0.378-0.268,0.502c-0.125,0.124-0.295,0.214-0.508,0.269c-0.213,0.054-0.477,0.081-0.789,0.081H244.207z M247.73,48.271
	c-0.523,0-0.986,0.103-1.389,0.307s-0.748,0.468-1.035,0.794c-0.285,0.325-0.516,0.69-0.691,1.095
	c-0.176,0.406-0.293,0.806-0.352,1.201h6.824c-0.057-0.42-0.162-0.834-0.314-1.239c-0.154-0.405-0.363-0.768-0.633-1.091
	c-0.268-0.322-0.6-0.581-1-0.775C248.742,48.37,248.271,48.271,247.73,48.271"/>
<path fill="#F37F7E" d="M259.61,48.654c0.107-0.396,0.24-0.771,0.396-1.129c0.156-0.357,0.348-0.67,0.574-0.938
	s0.498-0.48,0.812-0.636c0.316-0.156,0.691-0.235,1.125-0.235c0.275,0,0.527,0.042,0.756,0.125c0.23,0.083,0.43,0.199,0.6,0.349
	c0.168,0.15,0.301,0.325,0.396,0.527c0.096,0.2,0.145,0.418,0.145,0.655c0,0.319-0.049,0.587-0.145,0.803
	c-0.096,0.217-0.225,0.393-0.383,0.527c-0.16,0.134-0.34,0.231-0.541,0.292c-0.201,0.06-0.406,0.091-0.617,0.091h-0.26
	c-0.414,0-0.791,0.085-1.133,0.254c-0.34,0.169-0.633,0.432-0.875,0.789c-0.244,0.357-0.432,0.813-0.57,1.369
	c-0.137,0.554-0.205,1.219-0.205,1.99v4.91c0,0.248-0.039,0.477-0.115,0.684c-0.076,0.208-0.184,0.387-0.32,0.541
	c-0.137,0.153-0.305,0.271-0.502,0.354c-0.199,0.082-0.422,0.124-0.67,0.124c-0.25,0-0.475-0.042-0.676-0.124
	c-0.201-0.083-0.369-0.201-0.508-0.354c-0.137-0.154-0.24-0.333-0.314-0.541c-0.074-0.207-0.111-0.436-0.111-0.684V47.506
	c0-0.249,0.035-0.477,0.102-0.685c0.066-0.207,0.166-0.387,0.297-0.54s0.293-0.272,0.486-0.355c0.195-0.083,0.418-0.124,0.666-0.124
	s0.471,0.041,0.66,0.124c0.193,0.083,0.354,0.202,0.484,0.355s0.229,0.333,0.297,0.54c0.066,0.208,0.1,0.436,0.1,0.685v1.148H259.61
	z"/>
<path fill="#F37F7E" d="M329.535,69.924c-3.743,0.045-6.741,3.116-6.696,6.859c0.045,3.68,3.017,6.652,6.696,6.697h0.162
	c3.744-0.045,6.742-3.116,6.697-6.859C336.348,72.877,333.278,69.879,329.535,69.924"/>
<path fill="#F37F7E" d="M358.428,69.883c-3.758,0-6.803,3.046-6.803,6.803s3.045,6.802,6.803,6.802
	c3.754-0.004,6.798-3.047,6.803-6.802C365.231,72.929,362.185,69.883,358.428,69.883"/>
<path fill="#F37F7E" d="M333.225,43.605c-0.105-0.104-0.232-0.188-0.373-0.251c-0.146-0.062-0.301-0.096-0.464-0.096h-5.815V32.631
	c0-0.183-0.033-0.363-0.096-0.538c-0.064-0.175-0.158-0.329-0.279-0.461c-0.121-0.131-0.268-0.237-0.433-0.316
	c-0.349-0.166-0.799-0.16-1.133,0c-0.166,0.079-0.312,0.187-0.429,0.317c-0.119,0.133-0.211,0.287-0.273,0.462
	c-0.061,0.174-0.092,0.354-0.092,0.536v11.622c0,0.186,0.038,0.364,0.111,0.529c0.069,0.163,0.168,0.31,0.293,0.435
	c0.123,0.123,0.27,0.221,0.433,0.293c0.166,0.073,0.345,0.11,0.53,0.11h7.183c0.161,0,0.315-0.031,0.462-0.09
	c0.145-0.062,0.271-0.147,0.377-0.256c0.104-0.107,0.189-0.232,0.252-0.371c0.061-0.143,0.094-0.298,0.094-0.461
	c0-0.162-0.033-0.317-0.094-0.463C333.417,43.838,333.331,43.712,333.225,43.605"/>
<path fill="#F37F7E" d="M337.135,31.723c-0.133-0.133-0.291-0.238-0.469-0.315c-0.358-0.152-0.781-0.154-1.143,0.001
	c-0.18,0.077-0.337,0.183-0.471,0.314c-0.131,0.132-0.236,0.29-0.314,0.47c-0.076,0.181-0.117,0.373-0.117,0.57
	c0,0.198,0.041,0.392,0.118,0.572c0.077,0.179,0.183,0.336,0.313,0.469c0.135,0.133,0.293,0.239,0.471,0.315
	c0.178,0.077,0.371,0.116,0.57,0.116c0.201,0,0.395-0.039,0.572-0.116c0.178-0.076,0.336-0.182,0.469-0.315
	c0.134-0.132,0.24-0.29,0.314-0.469c0.078-0.178,0.118-0.371,0.118-0.572c0-0.2-0.04-0.393-0.117-0.57
	C337.375,32.013,337.269,31.855,337.135,31.723"/>
<path fill="#F37F7E" d="M337.045,35.412c-0.112-0.126-0.252-0.225-0.414-0.293c-0.319-0.134-0.764-0.134-1.088,0
	c-0.166,0.068-0.307,0.167-0.42,0.293c-0.111,0.124-0.199,0.272-0.259,0.44c-0.058,0.167-0.088,0.351-0.088,0.545v7.982
	c0,0.196,0.03,0.379,0.088,0.547c0.06,0.166,0.147,0.314,0.259,0.439c0.114,0.128,0.256,0.226,0.42,0.294
	c0.162,0.066,0.345,0.102,0.545,0.102c0.199,0,0.383-0.035,0.543-0.102c0.162-0.069,0.301-0.167,0.414-0.294
	c0.111-0.124,0.199-0.272,0.261-0.438s0.093-0.351,0.093-0.548v-7.982c0-0.196-0.031-0.381-0.093-0.547
	C337.245,35.683,337.157,35.536,337.045,35.412"/>
<path fill="#F37F7E" d="M353.565,35.719c-0.332-0.263-0.738-0.459-1.205-0.582c-0.463-0.122-0.985-0.185-1.553-0.185
	c-1.201,0-2.201,0.42-2.976,1.247c-0.136-0.178-0.296-0.339-0.472-0.478c-0.217-0.172-0.461-0.317-0.719-0.432
	c-0.261-0.114-0.537-0.199-0.824-0.254s-0.58-0.084-0.875-0.084c-0.606,0-1.166,0.104-1.662,0.309
	c-0.414,0.172-0.795,0.438-1.137,0.797c-0.013-0.079-0.031-0.153-0.057-0.227c-0.057-0.166-0.139-0.314-0.244-0.439
	c-0.109-0.127-0.244-0.225-0.402-0.294c-0.156-0.068-0.336-0.104-0.537-0.104c-0.41,0-0.727,0.136-0.944,0.4
	c-0.21,0.256-0.317,0.587-0.317,0.981v8.003c0,0.196,0.029,0.38,0.088,0.547c0.061,0.166,0.147,0.313,0.258,0.438
	c0.115,0.128,0.256,0.228,0.42,0.294c0.324,0.135,0.77,0.135,1.086,0c0.162-0.066,0.303-0.167,0.416-0.294
	c0.113-0.124,0.201-0.271,0.262-0.438s0.093-0.351,0.093-0.548v-5.127c0-0.098,0.015-0.218,0.046-0.357
	c0.03-0.141,0.082-0.285,0.15-0.431c0.07-0.147,0.164-0.295,0.275-0.438c0.112-0.142,0.25-0.271,0.41-0.385
	c0.164-0.115,0.354-0.207,0.566-0.277c0.214-0.07,0.463-0.105,0.74-0.105c0.279,0,0.509,0.042,0.684,0.123
	c0.176,0.084,0.309,0.192,0.407,0.336c0.101,0.145,0.173,0.322,0.211,0.522c0.04,0.216,0.06,0.449,0.06,0.695v5.443
	c0,0.196,0.03,0.38,0.088,0.547c0.061,0.166,0.147,0.313,0.26,0.438c0.113,0.128,0.255,0.228,0.42,0.294
	c0.322,0.135,0.77,0.135,1.086,0c0.163-0.066,0.302-0.167,0.416-0.294c0.111-0.124,0.199-0.271,0.26-0.438s0.094-0.351,0.094-0.548
	v-5.127c0-0.31,0.047-0.593,0.141-0.84c0.094-0.244,0.232-0.453,0.41-0.62c0.18-0.171,0.401-0.302,0.662-0.394
	c0.262-0.093,0.564-0.14,0.898-0.14c0.292,0,0.534,0.036,0.723,0.107c0.18,0.068,0.324,0.164,0.43,0.287
	c0.105,0.126,0.18,0.277,0.224,0.462c0.047,0.19,0.069,0.41,0.069,0.652v5.611c0,0.197,0.031,0.382,0.09,0.546
	c0.059,0.166,0.145,0.314,0.257,0.439c0.114,0.128,0.256,0.228,0.42,0.294c0.162,0.067,0.345,0.103,0.545,0.103
	s0.384-0.035,0.542-0.103c0.161-0.066,0.301-0.166,0.416-0.294c0.111-0.124,0.199-0.271,0.26-0.438
	c0.062-0.166,0.094-0.351,0.094-0.548v-6.158c0-0.568-0.092-1.065-0.271-1.478C354.164,36.328,353.901,35.982,353.565,35.719"/>
<path fill="#F37F7E" d="M359.202,31.723c-0.134-0.133-0.291-0.238-0.469-0.315c-0.357-0.152-0.781-0.154-1.143,0.001
	c-0.18,0.077-0.338,0.183-0.471,0.314c-0.131,0.132-0.236,0.29-0.315,0.47c-0.076,0.181-0.116,0.373-0.116,0.57
	c0,0.198,0.04,0.392,0.117,0.572c0.078,0.179,0.184,0.336,0.314,0.469c0.133,0.133,0.293,0.239,0.471,0.315
	c0.178,0.077,0.371,0.116,0.57,0.116c0.201,0,0.395-0.039,0.572-0.116c0.178-0.076,0.335-0.182,0.469-0.315
	c0.133-0.132,0.239-0.29,0.314-0.469c0.078-0.178,0.118-0.371,0.118-0.572c0-0.2-0.04-0.393-0.117-0.57
	C359.441,32.013,359.334,31.855,359.202,31.723"/>
<path fill="#F37F7E" d="M359.112,35.412c-0.113-0.126-0.253-0.225-0.414-0.293c-0.32-0.134-0.765-0.134-1.089,0
	c-0.165,0.068-0.306,0.167-0.419,0.293c-0.111,0.124-0.199,0.272-0.259,0.44c-0.058,0.167-0.088,0.351-0.088,0.545v7.982
	c0,0.196,0.03,0.379,0.088,0.547c0.06,0.166,0.147,0.314,0.259,0.439c0.114,0.128,0.256,0.226,0.419,0.294
	c0.162,0.066,0.345,0.102,0.546,0.102c0.199,0,0.383-0.035,0.543-0.102c0.16-0.069,0.301-0.167,0.414-0.294
	c0.111-0.124,0.199-0.272,0.26-0.438c0.062-0.166,0.094-0.351,0.094-0.548v-7.982c0-0.196-0.032-0.381-0.094-0.547
	C359.31,35.683,359.223,35.536,359.112,35.412"/>
<path fill="#F37F7E" d="M366.945,44.183c-0.03-0.12-0.075-0.227-0.142-0.326c-0.068-0.101-0.154-0.183-0.258-0.244
	c-0.187-0.109-0.442-0.106-0.685-0.072c-0.09,0.014-0.188,0.02-0.297,0.02c-0.229,0-0.388-0.062-0.483-0.189
	c-0.104-0.137-0.156-0.321-0.156-0.548v-5.83h0.746c0.369,0,0.656-0.075,0.855-0.222c0.213-0.158,0.321-0.392,0.321-0.697
	c0-0.304-0.108-0.538-0.322-0.691c-0.198-0.146-0.485-0.219-0.854-0.219h-0.746v-1.846c0-0.435-0.123-0.767-0.364-0.991
	c-0.24-0.221-0.558-0.334-0.946-0.334s-0.707,0.113-0.943,0.333c-0.244,0.225-0.367,0.558-0.367,0.992v1.846h-0.52
	c-0.359,0-0.613,0.082-0.779,0.249c-0.162,0.167-0.244,0.39-0.244,0.661c0,0.273,0.082,0.497,0.244,0.664
	c0.166,0.171,0.42,0.255,0.779,0.255h0.52v6.16c0,0.862,0.25,1.526,0.742,1.974c0.488,0.443,1.227,0.67,2.195,0.67
	c0.234,0,0.456-0.024,0.657-0.071c0.208-0.047,0.394-0.121,0.554-0.219c0.163-0.103,0.297-0.236,0.391-0.4
	c0.096-0.165,0.146-0.36,0.146-0.579C366.988,44.416,366.973,44.304,366.945,44.183"/>
<path fill="#F37F7E" d="M372.361,35.357c-0.929-0.191-1.829,0.411-2.019,1.335l-4.663,23.189c-0.376,1.837-2.009,3.171-3.882,3.171
	h-0.002h-33.819h-0.002c-1.954,0-3.64-1.459-3.923-3.393l-3.514-24.015l-0.49-3.374l0,0l-1.002-6.853
	c-0.408-2.83-2.871-4.961-5.729-4.961h-0.002h-6.624c-0.952,0-1.725,0.772-1.725,1.724c0,0.952,0.772,1.727,1.725,1.727h6.616h0.021
	c1.168,0,2.162,0.867,2.318,2.027l5.007,34.316c0.589,3.604,3.669,6.234,7.324,6.252h33.819c3.49-0.009,6.535-2.497,7.24-5.916
	l4.487-22.375l0.173-0.837C373.883,36.452,373.286,35.545,372.361,35.357"/>
<path fill="#F37F7E" d="M449.693,68.86c-3.744,0.045-6.742,3.116-6.697,6.859c0.045,3.68,3.017,6.652,6.697,6.697h0.162
	c3.743-0.045,6.741-3.116,6.696-6.859C456.506,71.813,453.435,68.815,449.693,68.86"/>
<path fill="#F37F7E" d="M478.585,68.819c-3.757,0-6.803,3.046-6.803,6.803s3.046,6.802,6.803,6.802
	c3.755-0.004,6.798-3.047,6.803-6.802C485.388,71.865,482.342,68.819,478.585,68.819"/>
<path fill="#F37F7E" d="M492.519,34.292c-0.93-0.191-1.83,0.411-2.019,1.335l-4.664,23.189c-0.376,1.837-2.008,3.171-3.882,3.171
	h-0.002h-33.818h-0.003c-1.954,0-3.64-1.459-3.923-3.393l-3.514-24.015l-0.49-3.374h0.001l-1.003-6.853
	c-0.408-2.83-2.871-4.961-5.729-4.961h-0.002h-6.625c-0.951,0-1.725,0.772-1.725,1.724c0,0.952,0.773,1.727,1.725,1.727h6.616h0.015
	c1.174,0,2.168,0.867,2.324,2.027l5.008,34.316c0.588,3.604,3.668,6.234,7.324,6.252h33.818c3.49-0.009,6.535-2.497,7.241-5.916
	l4.487-22.375l0.172-0.837C494.042,35.387,493.444,34.481,492.519,34.292"/>
<path fill="#F37F7E" d="M474.327,30.005c-3.478,0-6.103,2.29-8.422,4.766l-0.435,0.463l-0.434-0.464
	c-2.32-2.475-4.945-4.765-8.423-4.765c-4.013,0-7.274,3.264-7.274,7.275s3.262,7.275,7.274,7.275c3.478,0,6.103-2.29,8.423-4.765
	l0.434-0.463l0.435,0.463c2.319,2.475,4.944,4.765,8.422,4.765c4.013,0,7.276-3.264,7.276-7.275S478.339,30.005,474.327,30.005
	 M463.25,37.685c-1.849,1.997-4.039,4.128-6.637,4.128c-2.5,0-4.533-2.032-4.533-4.532s2.033-4.533,4.533-4.533
	c2.595,0,4.786,2.131,6.637,4.129l0.375,0.404L463.25,37.685z M474.327,41.813c-2.597,0-4.787-2.131-6.638-4.128l-0.373-0.404
	l0.373-0.404c1.852-1.998,4.043-4.129,6.638-4.129c2.5,0,4.533,2.033,4.533,4.533S476.827,41.813,474.327,41.813"/>
<path fill="#F37F7E" d="M595.056,71.327l-10.948-35.718c-0.324-1.057-1.029-1.941-1.987-2.494l-8.35-4.812
	c-0.794-0.457-1.805-0.185-2.262,0.608s-0.185,1.805,0.607,2.262l8.351,4.812c0.229,0.131,0.396,0.342,0.474,0.596l10.948,35.717
	c0.082,0.265,0.055,0.546-0.075,0.791s-0.348,0.425-0.613,0.506l-23.014,7.055c-0.874,0.269-1.366,1.194-1.098,2.068
	c0.218,0.713,0.873,1.171,1.582,1.171c0.16,0,0.324-0.023,0.486-0.073l23.014-7.054c1.11-0.34,2.022-1.093,2.568-2.12
	C595.284,73.614,595.397,72.437,595.056,71.327"/>
<path fill="#F37F7E" d="M550.574,59.368c0.495,0.159,0.996,0.239,1.492,0.239c0.883,0,1.75-0.251,2.529-0.744
	c1.327-0.838,2.371-2.34,3.018-4.344c1.217-3.771,0.13-6.709-2.835-7.666c-1.384-0.445-2.831-0.253-4.078,0.543
	c-1.324,0.845-2.352,2.311-2.973,4.238C546.383,55.911,548.19,58.599,550.574,59.368 M550.288,52.36l0.001-0.003
	c0.604-1.873,1.787-3.576,3.186-3.576c0.181,0,0.364,0.028,0.553,0.089c0.792,0.256,1.266,0.849,1.407,1.761
	c0.128,0.828-0.019,1.928-0.424,3.184c-0.425,1.317-0.974,2.334-1.589,2.943c-0.643,0.635-1.36,0.832-2.128,0.585
	c-0.495-0.16-0.871-0.488-1.116-0.975C549.706,55.434,549.746,53.973,550.288,52.36"/>
<path fill="#F37F7E" d="M565.03,59.187c-2.938-0.946-5.842,1.03-7.061,4.812c-1.429,4.545,0.63,6.985,2.827,7.692
	c0.493,0.16,0.994,0.239,1.49,0.239c0.885,0,1.75-0.251,2.53-0.743c1.328-0.838,2.371-2.341,3.019-4.345
	C569.052,63.071,567.977,60.138,565.03,59.187 M565.223,66.168c-0.419,1.301-0.965,2.31-1.577,2.918
	c-0.64,0.634-1.346,0.832-2.1,0.59c-0.505-0.163-0.887-0.499-1.136-0.999c-0.471-0.948-0.424-2.398,0.128-3.979l0.002-0.006
	c0.604-1.874,1.787-3.578,3.186-3.578c0.18,0,0.365,0.029,0.553,0.09C566.285,61.851,565.731,64.592,565.223,66.168"/>
<path fill="#F37F7E" d="M567.646,51.355c0.017-0.314-0.09-0.616-0.3-0.851c-0.21-0.233-0.5-0.373-0.814-0.39
	c-0.312-0.01-0.617,0.091-0.85,0.301L548.201,66.13c-0.235,0.212-0.373,0.5-0.39,0.814c-0.018,0.315,0.091,0.617,0.301,0.85
	c0.223,0.249,0.542,0.393,0.877,0.393c0.291,0,0.571-0.108,0.787-0.304l17.48-15.715C567.491,51.958,567.629,51.668,567.646,51.355"
	/>
<path fill="#F37F7E" d="M584.104,59.95c-1.062-3.818-3.575-5.674-6.56-4.843c-0.762,0.212-1.404,0.595-1.938,1.095l-1.565,5.495
	c0.06,0.43,0.137,0.866,0.262,1.315c1.314,4.58,4.375,5.482,6.599,4.863c0.501-0.14,0.963-0.35,1.376-0.623
	c0.738-0.487,1.323-1.174,1.702-2.015C584.626,63.807,584.669,61.979,584.104,59.95 M581.844,64.129
	c-0.184,0.882-0.665,1.437-1.427,1.649c-0.511,0.142-1.015,0.071-1.498-0.208c-0.915-0.532-1.675-1.769-2.086-3.393l-0.001-0.005
	c-0.529-1.896-0.479-3.97,0.687-4.74c0.15-0.1,0.32-0.178,0.511-0.23c2.031-0.565,3.079,2.026,3.522,3.623
	C581.919,62.142,582.021,63.285,581.844,64.129"/>
<path fill="#F37F7E" d="M580.746,43.388l-7.284-14.095c-0.429-0.83-1.448-1.154-2.278-0.728c-0.83,0.429-1.155,1.449-0.726,2.279
	l7.271,14.07c0.109,0.221,0.129,0.47,0.057,0.701l-11.108,35.513c-0.161,0.514-0.765,0.826-1.314,0.66l-27.259-8.188
	c-0.263-0.079-0.485-0.258-0.612-0.491c-0.122-0.226-0.148-0.486-0.071-0.729l11.106-35.514c0.075-0.238,0.241-0.439,0.467-0.567
	l18.109-10.229c0.256-0.143,0.564-0.177,0.849-0.093c0.896,0.269,1.837-0.239,2.104-1.134c0.27-0.895-0.239-1.837-1.134-2.105
	c-1.16-0.348-2.43-0.207-3.482,0.389l-18.109,10.228c-0.978,0.552-1.699,1.442-2.03,2.503l-11.108,35.512
	c-0.346,1.109-0.227,2.33,0.326,3.352c0.558,1.027,1.486,1.781,2.614,2.119l27.257,8.188c0.419,0.126,0.854,0.19,1.289,0.19
	c1.952,0,3.65-1.238,4.227-3.081l11.107-35.511C581.347,45.558,581.256,44.416,580.746,43.388"/>
<path fill="#F37F7E" d="M578.17,16.624c-0.923-0.126-1.783,0.505-1.919,1.427c-0.835,5.678-5.259,9.719-8.388,11.918
	c-0.62-0.426-1.37-0.678-2.181-0.678c-2.128,0-3.854,1.725-3.854,3.854S563.555,37,565.683,37c2.129,0,3.855-1.727,3.855-3.855
	c0-0.063-0.016-0.125-0.02-0.188c3.645-2.488,9.031-7.287,10.078-14.413C579.734,17.619,579.093,16.759,578.17,16.624"/>
<path fill="#F37F7E" d="M-153.895,149.106c-0.132,0-0.266-0.016-0.397-0.05l-11.16-2.885c-0.021-0.005-0.041-0.012-0.062-0.018
	c-1.291-0.39-2.479-1.102-3.436-2.059c-3.209-3.209-3.209-8.43,0-11.638c1.554-1.556,3.621-2.411,5.819-2.411
	c2.197,0,4.265,0.855,5.818,2.411c0.938,0.936,1.64,2.095,2.033,3.354c0.017,0.047,0.032,0.094,0.044,0.144l2.88,11.166
	c0.141,0.544-0.018,1.122-0.416,1.521C-153.072,148.943-153.478,149.106-153.895,149.106 M-164.623,143.102l8.516,2.202
	l-2.187-8.482l-0.003-0.01c-0.241-0.802-0.666-1.51-1.263-2.106c-0.954-0.953-2.222-1.479-3.57-1.479
	c-1.35,0-2.617,0.525-3.571,1.479c-1.969,1.97-1.969,5.174,0,7.143C-166.112,142.437-165.413,142.858-164.623,143.102"/>
<path fill="#F37F7E" d="M-152.493,149.106c-0.416,0-0.822-0.163-1.124-0.465c-0.398-0.397-0.557-0.977-0.415-1.521l2.879-11.166
	c0.013-0.049,0.026-0.098,0.044-0.144c0.395-1.26,1.096-2.418,2.033-3.354c1.555-1.555,3.621-2.41,5.819-2.41
	s4.266,0.855,5.819,2.41c3.208,3.209,3.208,8.43,0,11.639c-0.958,0.957-2.146,1.669-3.436,2.059
	c-0.021,0.007-0.041,0.013-0.062,0.018l-11.16,2.885C-152.228,149.091-152.36,149.106-152.493,149.106 M-148.094,136.821
	l-2.187,8.481l8.516-2.201c0.79-0.243,1.489-0.665,2.078-1.254c1.97-1.97,1.97-5.173,0-7.142c-0.954-0.954-2.222-1.479-3.57-1.479
	c-1.35,0-2.617,0.525-3.571,1.479c-0.596,0.595-1.021,1.304-1.263,2.105L-148.094,136.821z"/>
<path fill="#F37F7E" d="M-130.071,198.778h-46.134c-0.869,0-1.572-0.703-1.572-1.572v-33.147c0-0.868,0.703-1.573,1.572-1.573
	h46.134c0.868,0,1.572,0.705,1.572,1.573v33.147C-128.499,198.075-129.203,198.778-130.071,198.778 M-174.633,195.633h42.989
	v-30.002h-42.989V195.633z"/>
<path fill="#F37F7E" d="M-124.485,165.631h-57.306c-0.869,0-1.573-0.704-1.573-1.572v-14.297c0-0.868,0.704-1.572,1.573-1.572
	h57.306c0.869,0,1.573,0.704,1.573,1.572v14.297C-122.912,164.927-123.616,165.631-124.485,165.631 M-180.219,162.485h54.162
	v-11.152h-54.162V162.485z"/>
<rect x="-154.711" y="147.518" fill="#F37F7E" width="3.145" height="49.688"/>
<path fill="#F37F7E" d="M-10.053,154.167h-4.87c-0.306,0-0.554-0.248-0.554-0.554v-4.564c0-2.633-2.141-4.774-4.774-4.774h-48.852
	c-2.633,0-4.774,2.142-4.774,4.774v28.154c0,2.633,2.141,4.773,4.774,4.773h4.869c0.306,0,0.554,0.25,0.554,0.555v4.566
	c0,2.631,2.142,4.773,4.774,4.773h48.853c2.632,0,4.774-2.143,4.774-4.773v-28.157C-5.279,156.308-7.42,154.167-10.053,154.167
	 M-23.644,147.975c0.105-0.151,0.275-0.24,0.456-0.24h2.937c0.726,0,1.316,0.589,1.316,1.314v2.914c0,0.181-0.09,0.351-0.24,0.456
	c-0.092,0.062-0.201,0.097-0.314,0.097c-0.042,0-0.166-0.026-0.192-0.035c-1.842-0.703-3.307-2.159-4.023-3.995
	C-23.769,148.316-23.746,148.125-23.644,147.975 M-70.417,149.049c0-0.726,0.59-1.314,1.315-1.314h2.929
	c0.18,0,0.35,0.089,0.454,0.238c0.106,0.153,0.128,0.345,0.061,0.514c-0.706,1.838-2.168,3.3-4.011,4.009
	c-0.032,0.013-0.16,0.035-0.195,0.035c-0.112,0-0.224-0.033-0.314-0.098c-0.15-0.103-0.239-0.272-0.239-0.454V149.049z
	 M-65.794,178.268c-0.102,0.158-0.276,0.252-0.464,0.252h-2.844c-0.725,0-1.315-0.59-1.315-1.316v-2.678
	c0-0.182,0.089-0.352,0.236-0.453c0.089-0.062,0.202-0.1,0.317-0.1c0.037,0,0.163,0.025,0.193,0.035
	c1.746,0.664,3.175,2.025,3.922,3.738C-65.677,177.918-65.693,178.111-65.794,178.268 M-62.018,178.096
	c-0.927-3.891-4.052-6.947-7.961-7.785c-0.258-0.053-0.439-0.273-0.439-0.541v-13.057c0-0.264,0.18-0.485,0.437-0.541
	c4.006-0.857,7.155-3.997,8.023-7.999c0.053-0.253,0.28-0.438,0.54-0.438h33.482c0.262,0,0.484,0.18,0.54,0.437
	c0.86,4.011,4.009,7.161,8.023,8.023c0.253,0.053,0.438,0.279,0.438,0.539v13.036c0,0.262-0.184,0.488-0.438,0.541
	c-3.908,0.838-7.034,3.895-7.964,7.783c-0.059,0.25-0.28,0.426-0.537,0.426h-33.605C-61.732,178.52-61.955,178.346-62.018,178.096
	 M-18.935,174.525v2.678c0,0.727-0.59,1.316-1.316,1.316h-2.845c-0.185,0-0.359-0.096-0.463-0.254c-0.1-0.156-0.116-0.35-0.043-0.52
	c0.745-1.713,2.172-3.074,3.915-3.736c0.036-0.012,0.161-0.037,0.198-0.037c0.113,0,0.221,0.035,0.313,0.098
	C-19.025,174.174-18.935,174.344-18.935,174.525 M-55.598,188.16c-0.103,0.156-0.276,0.25-0.462,0.25h-2.846
	c-0.725,0-1.314-0.59-1.314-1.312v-2.68c0-0.182,0.089-0.352,0.239-0.455c0.092-0.064,0.201-0.098,0.313-0.098
	c0.041,0,0.163,0.025,0.193,0.035c1.747,0.664,3.175,2.027,3.923,3.738C-55.479,187.811-55.497,188.006-55.598,188.16
	 M-8.739,187.098c0,0.723-0.59,1.312-1.314,1.312h-2.846c-0.187,0-0.359-0.094-0.462-0.25c-0.102-0.154-0.118-0.35-0.045-0.523
	c0.744-1.717,2.172-3.084,3.92-3.75c0.031-0.012,0.157-0.037,0.194-0.037c0.112,0,0.222,0.035,0.312,0.096
	c0.151,0.104,0.241,0.275,0.241,0.457V187.098z M-8.739,179.662c0,0.26-0.184,0.486-0.437,0.539
	c-3.909,0.84-7.035,3.896-7.965,7.785c-0.06,0.25-0.28,0.424-0.537,0.424h-33.604c-0.255,0-0.476-0.174-0.536-0.422
	c-0.464-1.932-1.464-3.682-2.892-5.061c-0.163-0.156-0.213-0.395-0.128-0.604c0.084-0.211,0.285-0.348,0.512-0.348h34.075
	c2.633,0,4.774-2.141,4.774-4.773v-13.75c0-0.229,0.138-0.43,0.35-0.514c0.036-0.015,0.167-0.039,0.204-0.039
	c0.149,0,0.294,0.062,0.399,0.17c1.448,1.519,3.297,2.554,5.347,2.994c0.254,0.053,0.438,0.279,0.438,0.539V179.662z
	 M-8.739,161.871c0,0.183-0.088,0.352-0.236,0.452c-0.089,0.064-0.202,0.101-0.317,0.101c-0.033,0-0.162-0.021-0.201-0.037
	c-1.837-0.707-3.298-2.169-4.007-4.009c-0.064-0.17-0.041-0.36,0.062-0.51c0.102-0.149,0.272-0.239,0.455-0.239h2.93
	c0.724,0,1.314,0.589,1.314,1.312V161.871z"/>
<path fill="#F37F7E" d="M-44.638,150.647h-0.009c-6.86,0-12.445,5.581-12.451,12.44c-0.005,6.866,5.577,12.456,12.442,12.459
	c6.869,0,12.455-5.58,12.46-12.44C-32.201,156.242-37.783,150.657-44.638,150.647 M-44.637,172.336L-44.637,172.336
	c-0.026,0-0.051-0.004-0.075-0.01c-5.06-0.041-9.164-4.17-9.164-9.239c0-5.094,4.145-9.237,9.239-9.237
	c5.094,0,9.238,4.144,9.238,9.237C-35.399,168.182-39.543,172.33-44.637,172.336"/>
<path fill="#F37F7E" d="M-44.187,168.633v1.141c0,0.066-0.009,0.133-0.027,0.199c-0.019,0.064-0.047,0.123-0.085,0.172
	c-0.037,0.051-0.082,0.09-0.136,0.121c-0.055,0.031-0.117,0.045-0.188,0.045c-0.071,0-0.133-0.014-0.187-0.045
	c-0.055-0.031-0.1-0.07-0.137-0.121c-0.038-0.049-0.065-0.107-0.085-0.172c-0.018-0.066-0.028-0.133-0.028-0.199v-1.141h-2.847
	c-0.135,0-0.262-0.027-0.381-0.08c-0.12-0.053-0.224-0.123-0.314-0.211c-0.09-0.09-0.16-0.195-0.212-0.314
	c-0.052-0.119-0.079-0.246-0.079-0.381v-9.215c0-0.135,0.027-0.262,0.079-0.381c0.052-0.12,0.122-0.225,0.212-0.314
	c0.09-0.089,0.194-0.16,0.314-0.212c0.119-0.052,0.246-0.078,0.381-0.078h2.847v-1.019c0-0.07,0.01-0.14,0.028-0.204
	c0.02-0.065,0.047-0.123,0.085-0.173c0.037-0.052,0.082-0.091,0.137-0.121c0.054-0.03,0.116-0.045,0.187-0.045
	c0.067,0,0.127,0.015,0.182,0.045c0.054,0.03,0.099,0.069,0.137,0.121c0.038,0.05,0.066,0.107,0.087,0.173
	c0.02,0.064,0.03,0.134,0.03,0.204v1.019c0.325,0.004,0.649,0.021,0.971,0.053c0.323,0.031,0.631,0.086,0.923,0.165
	c0.294,0.078,0.565,0.186,0.818,0.318c0.251,0.135,0.469,0.307,0.654,0.515c0.185,0.21,0.329,0.462,0.434,0.757
	c0.104,0.295,0.157,0.64,0.157,1.034c0,0.545-0.098,1.014-0.294,1.402c-0.196,0.39-0.496,0.718-0.898,0.982
	c0.269,0.115,0.506,0.263,0.713,0.439c0.207,0.176,0.383,0.378,0.526,0.604c0.144,0.225,0.252,0.472,0.325,0.74
	c0.073,0.268,0.109,0.553,0.109,0.85c0,0.277-0.036,0.551-0.106,0.822c-0.072,0.27-0.175,0.527-0.314,0.773
	c-0.138,0.246-0.31,0.477-0.515,0.686c-0.205,0.211-0.441,0.395-0.71,0.549s-0.568,0.275-0.899,0.363
	c-0.329,0.088-0.688,0.133-1.076,0.133H-44.187z M-45.06,159.141h-1.863v2.91h1.863V159.141z M-45.06,163.752h-1.863v3.207h1.863
	V163.752z M-42.177,160.584c0-0.351-0.048-0.623-0.145-0.819c-0.097-0.196-0.234-0.34-0.411-0.432
	c-0.178-0.092-0.389-0.146-0.635-0.164c-0.247-0.019-0.519-0.028-0.818-0.028v2.91c0.702-0.016,1.212-0.145,1.531-0.387
	C-42.336,161.422-42.177,161.062-42.177,160.584 M-44.187,163.752v3.207h0.61c0.299,0,0.563-0.039,0.795-0.117
	c0.231-0.08,0.425-0.191,0.582-0.34c0.157-0.146,0.276-0.326,0.358-0.539s0.124-0.453,0.124-0.723c0-0.299-0.065-0.543-0.194-0.735
	c-0.128-0.192-0.295-0.346-0.5-0.456c-0.205-0.112-0.439-0.189-0.7-0.233c-0.262-0.043-0.522-0.063-0.783-0.063H-44.187z"/>
<path fill="#F37F7E" d="M52.695,179.848l0.079-0.002h22.958h0.001c0.485,0,0.917-0.177,1.244-0.498
	c0.331-0.331,0.514-0.77,0.514-1.234s-0.183-0.904-0.515-1.236c-0.327-0.32-0.759-0.496-1.216-0.497l-22.978,0.001
	c-0.038-0.002-0.064-0.003-0.09-0.003s-0.052,0.001-0.079,0.002c-0.461,0.021-0.898,0.228-1.203,0.565
	c-0.312,0.339-0.471,0.781-0.451,1.25c0.02,0.458,0.226,0.895,0.565,1.199C51.841,179.688,52.257,179.848,52.695,179.848"/>
<path fill="#F37F7E" d="M52.695,185.586l0.079-0.003h11.483h0.001c0.485,0,0.916-0.177,1.244-0.497
	c0.331-0.331,0.514-0.771,0.514-1.234c0-0.465-0.183-0.904-0.515-1.237c-0.327-0.318-0.759-0.496-1.216-0.496H52.782
	c-0.038-0.002-0.064-0.003-0.09-0.003s-0.052,0.001-0.078,0.003c-0.461,0.021-0.899,0.227-1.204,0.564
	c-0.312,0.339-0.471,0.783-0.451,1.25c0.02,0.458,0.226,0.895,0.565,1.2C51.841,185.426,52.257,185.586,52.695,185.586"/>
<path fill="#F37F7E" d="M109.028,180.145l-2.704-10.034c-0.004-0.017-0.006-0.031-0.006-0.047v-14.391
	c0-2.786-2.28-5.132-5.082-5.227c-0.079-0.003-0.147-0.056-0.168-0.131l-0.511-1.803c-0.608-2.265-2.675-3.845-5.025-3.845
	c-0.105,0-0.211,0.003-0.317,0.011c-0.484,0.029-0.83,0.124-1.016,0.174l-20.879,5.588c-0.016,0.004-0.031,0.006-0.047,0.006H48.489
	c-2.899,0-5.257,2.345-5.257,5.227v2.824c0,0.067-0.037,0.129-0.097,0.16c-2.136,1.109-3.235,3.599-2.613,5.921l2.704,10.034
	c0.004,0.015,0.006,0.031,0.006,0.047v14.39c0,2.819,2.293,5.178,5.112,5.258c0.08,0.002,0.148,0.056,0.169,0.133l0.481,1.772
	c0.608,2.263,2.674,3.843,5.024,3.843c0.106,0,0.212-0.004,0.318-0.011c0.493-0.029,0.832-0.124,1.015-0.174l20.699-5.558
	c0.015-0.004,0.031-0.006,0.047-0.006h24.965c2.898,0,5.256-2.358,5.256-5.258v-2.793c0-0.067,0.038-0.13,0.098-0.16
	C108.556,184.985,109.655,182.482,109.028,180.145 M88.127,150.09l6.97-1.861c0.174-0.046,0.277-0.062,0.321-0.065
	c0.005-0.001,0.01-0.001,0.015-0.001c0.033-0.002,0.066-0.003,0.099-0.003c0.768,0,1.446,0.526,1.649,1.278l0.21,0.781
	c0.015,0.054,0.003,0.111-0.031,0.156s-0.087,0.071-0.144,0.071h-9.042c-0.091,0-0.168-0.067-0.18-0.157
	C87.983,150.199,88.04,150.115,88.127,150.09 M61.303,194.662l-6.849,1.832c-0.205,0.054-0.318,0.068-0.353,0.068
	c-0.003,0-0.006,0-0.01,0c-0.026,0.001-0.052,0.001-0.078,0.001c-0.782,0-1.442-0.501-1.643-1.248
	c-0.004-0.016-0.007-0.031-0.007-0.047l-0.203-0.732c-0.015-0.055-0.004-0.113,0.03-0.158s0.088-0.071,0.144-0.071h8.922
	c0.091,0,0.168,0.067,0.18,0.157C61.448,194.554,61.392,194.639,61.303,194.662 M102.835,189.049c0,1.012-0.763,1.773-1.774,1.773
	H48.488c-1.01,0-1.773-0.762-1.773-1.773v-14.42c0.011-0.125,0.011-0.234,0.001-0.344v-2.871c0-0.1,0.081-0.181,0.181-0.181h55.757
	c0.099,0,0.181,0.081,0.181,0.181V189.049z M102.835,167.57c0,0.1-0.082,0.181-0.181,0.181H46.897c-0.1,0-0.181-0.081-0.181-0.181
	v-4.807c0-0.101,0.081-0.181,0.181-0.181h55.757c0.099,0,0.181,0.08,0.181,0.181V167.57z M102.835,158.917
	c0,0.101-0.081,0.182-0.181,0.182H46.897c-0.1,0-0.181-0.081-0.181-0.182v-3.244c0-1.01,0.746-1.743,1.773-1.743h52.573
	c1.027,0,1.773,0.733,1.773,1.743V158.917z"/>
<g>
	<path fill="#F37F7E" d="M-168.595-32.167c-3.054,0-4.805-1.879-4.805-5.154v-57.934c0-3.36,1.886-5.532,4.805-5.532h34.057
		c2.919,0,4.805,2.172,4.805,5.532v57.934c0,3.275-1.751,5.154-4.805,5.154H-168.595z M-169.699-43.58
		c-0.069,0-0.125,0.056-0.125,0.125v6.179c0,0.953,0.08,1.578,1.149,1.578h34.216c1.07,0,1.15-0.625,1.15-1.578v-6.179
		c0-0.069-0.056-0.125-0.125-0.125H-169.699z M-169.699-89.559c-0.069,0-0.125,0.056-0.125,0.125v42.087
		c0,0.07,0.056,0.125,0.125,0.125h36.265c0.069,0,0.125-0.055,0.125-0.125v-42.087c0-0.069-0.056-0.125-0.125-0.125H-169.699z
		 M-168.491-97.211c-0.885,0-1.333,0.658-1.333,1.956v1.995c0,0.07,0.056,0.125,0.125,0.125h36.265c0.069,0,0.125-0.055,0.125-0.125
		v-1.995c0-1.298-0.449-1.956-1.333-1.956H-168.491z"/>
	<path fill="#F37F7E" d="M-149.566-39.637c0,1.105-0.896,2-2,2c-1.105,0-2-0.895-2-2c0-1.104,0.895-2,2-2
		C-150.462-41.637-149.566-40.741-149.566-39.637"/>
</g>
</svg>
