<?xml version="1.0" encoding="utf-8"?>
<!-- Generator: Adobe Illustrator 16.0.0, SVG Export Plug-In . SVG Version: 6.00 Build 0)  -->
<!DOCTYPE svg PUBLIC "-//W3C//DTD SVG 1.1//EN" "http://www.w3.org/Graphics/SVG/1.1/DTD/svg11.dtd">
<svg version="1.1" id="Layer_1" xmlns="http://www.w3.org/2000/svg" xmlns:xlink="http://www.w3.org/1999/xlink" x="0px" y="0px"
	 width="54px" height="54px" viewBox="0 0 54 54" enable-background="new 0 0 54 54" xml:space="preserve">
<g>
	<path fill="#FFFFFF" d="M31.86,35.824c-2.771,2.086-6.219,3.321-9.955,3.321c-9.152,0-16.572-7.42-16.572-16.572
		C5.333,13.42,12.752,6,21.905,6c9.153,0,16.572,7.42,16.572,16.573c0,3.737-1.237,7.185-3.323,9.957
		c0.266,0.121,0.515,0.289,0.73,0.507l11.377,11.377c0.977,0.978,0.989,2.549,0.012,3.526c-0.971,0.972-2.56,0.955-3.528-0.012
		L32.369,36.553C32.151,36.335,31.981,36.087,31.86,35.824 M21.905,35.831c7.322,0,13.258-5.936,13.258-13.258
		S29.227,9.315,21.905,9.315c-7.321,0-13.258,5.936-13.258,13.258S14.583,35.831,21.905,35.831"/>
</g>
</svg>
