<?xml version="1.0" encoding="utf-8"?>
<!-- Generator: Adobe Illustrator 16.0.0, SVG Export Plug-In . SVG Version: 6.00 Build 0)  -->
<!DOCTYPE svg PUBLIC "-//W3C//DTD SVG 1.1//EN" "http://www.w3.org/Graphics/SVG/1.1/DTD/svg11.dtd">
<svg version="1.1" id="Layer_1" xmlns="http://www.w3.org/2000/svg" xmlns:xlink="http://www.w3.org/1999/xlink" x="0px" y="0px"
	 width="54px" height="54px" viewBox="1.393 -0.397 54 54" enable-background="new 1.393 -0.397 54 54" xml:space="preserve">
<g>
	<path fill="#FFFFFF" d="M39.631,40.563c-2.217,0-4.021,1.804-4.021,4.021c0,2.216,1.805,4.02,4.021,4.02
		c2.213-0.002,4.017-1.807,4.02-4.02C43.651,42.367,41.847,40.563,39.631,40.563"/>
	<path fill="#FFFFFF" d="M50.438,14.453l-0.016-0.02c-0.312-0.366-0.77-0.554-1.242-0.566H15.05l-0.588-4.012
		c-0.302-2.097-2.128-3.678-4.246-3.678h-0.002H5.867c-0.895,0-1.623,0.729-1.623,1.624c0,0.896,0.729,1.623,1.623,1.623h4.348
		c0.514-0.021,0.975,0.384,1.046,0.911l3.287,22.535c0.427,2.604,2.651,4.504,5.292,4.516h22.202
		c2.523-0.006,4.725-1.804,5.234-4.276l3.471-17.302C50.853,15.331,50.741,14.836,50.438,14.453 M42.042,34.139H19.839
		c-1.042,0-1.939-0.775-2.091-1.808l-2.226-15.22h31.671l-3.083,15.34C43.911,33.43,43.04,34.139,42.042,34.139"/>
	<path fill="#FFFFFF" d="M21.727,40.585L21.727,40.585c-1.069,0.013-2.07,0.44-2.818,1.208c-0.747,0.767-1.152,1.775-1.14,2.847
		c0.026,2.193,1.766,3.932,3.963,3.958h0.092c1.07-0.013,2.07-0.441,2.818-1.207s1.153-1.775,1.141-2.848
		C25.755,42.335,23.936,40.549,21.727,40.585"/>
	<path fill="#FFFFFF" d="M50.438,14.453l-0.016-0.02c-0.312-0.366-0.77-0.554-1.242-0.566H15.05l-0.588-4.012
		c-0.302-2.097-2.128-3.678-4.246-3.678h-0.002H5.867c-0.895,0-1.623,0.729-1.623,1.624c0,0.896,0.729,1.623,1.623,1.623h4.348
		c0.514-0.021,0.975,0.384,1.046,0.911l3.287,22.535c0.427,2.604,2.651,4.504,5.292,4.516h22.202
		c2.523-0.006,4.725-1.804,5.234-4.276l3.471-17.302C50.853,15.331,50.741,14.836,50.438,14.453 M42.042,34.139H19.839
		c-1.042,0-1.939-0.775-2.091-1.808l-2.226-15.22h31.671l-3.083,15.34C43.911,33.43,43.04,34.139,42.042,34.139"/>
</g>
</svg>
